# 3ds Max Wavefront OBJ Exporter v0.97b - (c)2007 guruware
# File Created: 27.01.2019 11:16:33

mtllib old_commode_left.mtl

#
# object bamboo_table_left
#

v  -39.5688 43.7810 41.4994
v  -39.5688 0.0000 41.4994
v  -40.8616 0.0000 38.3783
v  -40.8616 43.7810 38.3783
v  -43.9826 0.0000 37.0855
v  -43.9826 43.7810 37.0855
v  -47.1037 0.0000 38.3783
v  -47.1037 43.7810 38.3783
v  -48.3965 0.0000 41.4994
v  -48.3965 43.7810 41.4994
v  -47.1037 0.0000 44.6205
v  -47.1037 43.7810 44.6205
v  -43.9826 0.0000 45.9133
v  -43.9826 43.7810 45.9133
v  -40.8616 0.0000 44.6205
v  -40.8616 43.7810 44.6205
v  -39.5688 43.7810 -12.6853
v  -39.5688 0.0000 -12.6853
v  -40.8616 0.0000 -15.8064
v  -40.8616 43.7810 -15.8064
v  -43.9826 0.0000 -17.0992
v  -43.9826 43.7810 -17.0992
v  -47.1037 0.0000 -15.8064
v  -47.1037 43.7810 -15.8064
v  -48.3965 0.0000 -12.6853
v  -48.3965 43.7810 -12.6853
v  -47.1037 0.0000 -9.5642
v  -47.1037 43.7810 -9.5642
v  -43.9826 0.0000 -8.2714
v  -43.9826 43.7810 -8.2714
v  -40.8616 0.0000 -9.5642
v  -40.8616 43.7810 -9.5642
v  -40.2966 2.5501 40.1820
v  -40.2966 2.5501 -12.1398
v  -41.3762 5.1566 -12.1398
v  -41.3762 5.1566 40.1820
v  -43.9826 6.2362 -12.1398
v  -43.9826 6.2362 40.1820
v  -46.5890 5.1566 -12.1398
v  -46.5890 5.1566 40.1820
v  -47.6687 2.5501 -12.1398
v  -47.6687 2.5501 40.1820
v  -46.5890 -0.0563 -12.1398
v  -46.5890 -0.0563 40.1820
v  -43.9826 -1.1359 -12.1398
v  -43.9826 -1.1359 40.1820
v  -41.3762 -0.0563 -12.1398
v  -41.3762 -0.0563 40.1820
v  -40.2966 39.3601 40.1820
v  -40.2966 39.3601 -12.1398
v  -41.3762 41.9665 -12.1398
v  -41.3762 41.9665 40.1820
v  -43.9826 43.0462 -12.1398
v  -43.9826 43.0462 40.1820
v  -46.5890 41.9665 -12.1398
v  -46.5890 41.9665 40.1820
v  -47.6687 39.3601 -12.1398
v  -47.6687 39.3601 40.1820
v  -46.5890 36.7537 -12.1398
v  -46.5890 36.7537 40.1820
v  -43.9826 35.6741 -12.1398
v  -43.9826 35.6741 40.1820
v  -41.3762 36.7537 -12.1398
v  -41.3762 36.7537 40.1820
v  -41.0601 35.3079 39.4918
v  -41.0601 4.8698 -10.0573
v  -41.9161 6.6595 -11.0906
v  -41.9161 37.0976 38.4585
v  -43.9826 7.4008 -11.5186
v  -43.9826 37.8389 38.0305
v  -46.0492 6.6595 -11.0906
v  -46.0492 37.0976 38.4585
v  -46.9052 4.8698 -10.0573
v  -46.9052 35.3079 39.4918
v  -46.0492 3.0801 -9.0240
v  -46.0492 33.5182 40.5251
v  -43.9826 2.3388 -8.5960
v  -43.9826 32.7769 40.9531
v  -41.9161 3.0801 -9.0240
v  -41.9161 33.5182 40.5251
v  -41.0601 4.0673 38.9806
v  -41.0601 36.1104 -9.5461
v  -41.9161 37.8032 -8.3607
v  -41.9161 5.7602 40.1659
v  -43.9826 38.5044 -7.8697
v  -43.9826 6.4614 40.6569
v  -46.0492 37.8032 -8.3607
v  -46.0492 5.7602 40.1659
v  -46.9052 36.1104 -9.5461
v  -46.9052 4.0673 38.9806
v  -46.0492 34.4175 -10.7314
v  -46.0492 2.3745 37.7952
v  -43.9826 33.7163 -11.2224
v  -43.9826 1.6733 37.3042
v  -41.9161 34.4175 -10.7314
v  -41.9161 2.3745 37.7952
v  -43.5724 47.2900 -19.5593
v  -43.5724 47.2900 48.6807
v  -40.0069 47.1258 48.6807
v  -40.0069 47.1258 -19.5593
v  -32.2202 38.7759 -19.5593
v  -32.2202 38.7759 48.6807
v  -32.4987 35.3671 48.6807
v  -32.4987 35.3671 -19.5593
v  -32.8718 42.3233 -19.5593
v  -32.8718 42.3233 48.6807
v  -34.1947 44.6406 -19.5593
v  -34.1947 44.6406 48.6807
v  -36.6903 46.1752 -19.5593
v  -36.6903 46.1752 48.6807
v  -43.5724 43.2188 -19.5593
v  -40.6766 43.0776 -19.5593
v  -40.6766 43.0776 48.6807
v  -43.5724 43.2188 48.6807
v  -36.3266 38.5701 -19.5593
v  -36.5612 35.6990 -19.5593
v  -36.5612 35.6990 48.6807
v  -36.3266 38.5701 48.6807
v  -36.5333 40.1417 -19.5593
v  -36.5333 40.1417 48.6807
v  -37.1232 41.7994 -19.5593
v  -37.1232 41.7994 48.6807
v  -38.6729 42.6441 -19.5593
v  -38.6729 42.6441 48.6807
v  -50.0000 47.2900 -19.5593
v  -50.0000 43.2188 -19.5593
v  -50.0000 43.2188 48.6807
v  -50.0000 47.2900 48.6807
# 128 vertices

vn 1.0000 0.0000 -0.0000
vn 0.7072 0.0000 -0.7071
vn 0.0000 0.0000 -1.0000
vn -0.7072 0.0000 -0.7071
vn -1.0000 0.0000 -0.0000
vn -0.7072 0.0000 0.7071
vn 0.0000 0.0000 1.0000
vn 0.7072 0.0000 0.7071
vn 0.7072 0.7070 -0.0000
vn 0.0000 1.0000 -0.0000
vn -0.7072 0.7070 -0.0000
vn -0.7072 -0.7070 -0.0000
vn 0.0000 -1.0000 -0.0000
vn 0.7072 -0.7070 -0.0000
vn 0.7071 0.7071 -0.0000
vn -0.7071 0.7071 -0.0000
vn -0.7071 -0.7071 -0.0000
vn 0.7071 -0.7071 -0.0000
vn 1.0000 0.0057 -0.0034
vn 1.0000 -0.0057 0.0035
vn 0.7103 0.5998 -0.3684
vn 0.7037 0.6053 -0.3719
vn 0.0000 0.8521 -0.5234
vn -0.7103 0.5998 -0.3684
vn -0.7037 0.6053 -0.3719
vn -1.0000 -0.0057 0.0035
vn -1.0000 0.0057 -0.0034
vn -0.7037 -0.6053 0.3719
vn -0.7103 -0.5997 0.3685
vn 0.0000 -0.8521 0.5234
vn 0.7037 -0.6053 0.3719
vn 0.7103 -0.5997 0.3685
vn 1.0000 0.0055 0.0038
vn 1.0000 -0.0053 -0.0037
vn 0.7103 0.5874 0.3878
vn 0.7038 0.5929 0.3914
vn 0.0000 0.8346 0.5509
vn -0.7103 0.5874 0.3878
vn -0.7038 0.5929 0.3914
vn -1.0000 -0.0053 -0.0037
vn -1.0000 0.0055 0.0038
vn -0.7038 -0.5928 -0.3915
vn -0.7103 -0.5874 -0.3879
vn 0.0000 -0.8346 -0.5509
vn 0.7038 -0.5928 -0.3915
vn 0.7103 -0.5874 -0.3879
vn 0.0462 0.9989 -0.0000
vn 0.1617 0.9868 -0.0000
vn 0.9988 0.0500 -0.0000
vn 0.9967 -0.0812 -0.0000
vn 0.9393 0.3430 -0.0000
vn 0.7186 0.6954 -0.0000
vn 0.4032 0.9151 -0.0000
vn -0.0488 -0.9988 -0.0000
vn -0.1305 -0.9915 -0.0000
vn -0.9997 -0.0244 -0.0000
vn -0.9967 0.0812 -0.0000
vn -0.9722 -0.2342 -0.0000
vn -0.7604 -0.6494 -0.0000
vn -0.3487 -0.9373 -0.0000
vn -0.0812 -0.9967 -0.0000
# 61 vertex normals

vt 0.2306 0.7070 1.1043
vt 0.2306 0.2692 1.1043
vt 0.2618 0.2692 1.0914
vt 0.2618 0.7070 1.0914
vt -0.0914 0.7070 0.2618
vt -0.0914 0.2692 0.2618
vt -0.0602 0.2692 0.2748
vt -0.0602 0.7070 0.2748
vt -0.0290 0.2692 0.2618
vt -0.0290 0.7070 0.2618
vt 0.7382 0.7070 1.0290
vt 0.7382 0.2692 1.0290
vt 0.7694 0.2692 1.0160
vt 0.7694 0.7070 1.0160
vt 0.8006 0.2692 1.0290
vt 0.8006 0.7070 1.0290
vt 1.0290 0.7070 0.1994
vt 1.0290 0.2692 0.1994
vt 1.0602 0.2692 0.1865
vt 1.0602 0.7070 0.1865
vt 1.0914 0.2692 0.1994
vt 1.0914 0.7070 0.1994
vt 0.1994 0.7070 1.0914
vt 0.1994 0.2692 1.0914
vt 0.7725 0.7070 1.1043
vt 0.7725 0.2692 1.1043
vt 0.8037 0.2692 1.0914
vt 0.8037 0.7070 1.0914
vt -0.0914 0.7070 0.8037
vt -0.0914 0.2692 0.8037
vt -0.0602 0.2692 0.8166
vt -0.0602 0.7070 0.8166
vt -0.0290 0.2692 0.8037
vt -0.0290 0.7070 0.8037
vt 0.1963 0.7070 1.0290
vt 0.1963 0.2692 1.0290
vt 0.2275 0.2692 1.0160
vt 0.2275 0.7070 1.0160
vt 0.2588 0.2692 1.0290
vt 0.2588 0.7070 1.0290
vt 1.0290 0.7070 0.7412
vt 1.0290 0.2692 0.7412
vt 1.0602 0.2692 0.7283
vt 1.0602 0.7070 0.7283
vt 1.0914 0.2692 0.7412
vt 1.0914 0.7070 0.7412
vt 0.7412 0.7070 1.0914
vt 0.7412 0.2692 1.0914
vt 0.2438 0.2947 1.0970
vt 0.7670 0.2947 1.0970
vt 0.7670 0.3208 1.0862
vt 0.2438 0.3208 1.0862
vt 1.0862 0.2438 0.3208
vt 1.0862 0.7670 0.3208
vt 1.0602 0.7670 0.3316
vt 1.0602 0.2438 0.3316
vt 1.0341 0.7670 0.3208
vt 1.0341 0.2438 0.3208
vt 0.7562 0.3208 1.0341
vt 0.2330 0.3208 1.0341
vt 0.2330 0.2947 1.0233
vt 0.7562 0.2947 1.0233
vt 0.2330 0.2687 1.0341
vt 0.7562 0.2687 1.0341
vt -0.0341 0.2438 0.2687
vt -0.0341 0.7670 0.2687
vt -0.0602 0.7670 0.2579
vt -0.0602 0.2438 0.2579
vt -0.0862 0.7670 0.2687
vt -0.0862 0.2438 0.2687
vt 0.2438 0.2687 1.0862
vt 0.7670 0.2687 1.0862
vt 0.2438 0.6628 1.0970
vt 0.7670 0.6628 1.0970
vt 0.7670 0.6889 1.0862
vt 0.2438 0.6889 1.0862
vt 1.0862 0.2438 0.6889
vt 1.0862 0.7670 0.6889
vt 1.0602 0.7670 0.6997
vt 1.0602 0.2438 0.6997
vt 1.0341 0.7670 0.6889
vt 1.0341 0.2438 0.6889
vt 0.7562 0.6889 1.0341
vt 0.2330 0.6889 1.0341
vt 0.2330 0.6628 1.0233
vt 0.7562 0.6628 1.0233
vt 0.2330 0.6368 1.0341
vt 0.7562 0.6368 1.0341
vt -0.0341 0.2438 0.6368
vt -0.0341 0.7670 0.6368
vt -0.0602 0.7670 0.6260
vt -0.0602 0.2438 0.6260
vt -0.0862 0.7670 0.6368
vt -0.0862 0.2438 0.6368
vt 0.2438 0.6368 1.0862
vt 0.7670 0.6368 1.0862
vt 0.2507 0.6223 1.0894
vt 0.7462 0.3179 1.0894
vt 0.7565 0.3358 1.0808
vt 0.2610 0.6402 1.0808
vt 1.0808 0.2610 0.6402
vt 1.0808 0.7565 0.3358
vt 1.0602 0.7608 0.3432
vt 1.0602 0.2653 0.6476
vt 1.0395 0.7565 0.3358
vt 1.0395 0.2610 0.6402
vt 0.7390 0.6402 1.0395
vt 0.2435 0.3358 1.0395
vt 0.2538 0.3179 1.0309
vt 0.7493 0.6223 1.0309
vt 0.2642 0.3000 1.0395
vt 0.7596 0.6044 1.0395
vt -0.0395 0.2404 0.6044
vt -0.0395 0.7358 0.3000
vt -0.0602 0.7316 0.2926
vt -0.0602 0.2361 0.5970
vt -0.0808 0.7358 0.3000
vt -0.0808 0.2404 0.6044
vt 0.2404 0.6044 1.0808
vt 0.7358 0.3000 1.0808
vt 0.2558 0.3099 1.0894
vt 0.7411 0.6303 1.0894
vt 0.7292 0.6473 1.0808
vt 0.2439 0.3268 1.0808
vt 1.0808 0.2439 0.3268
vt 1.0808 0.7292 0.6473
vt 1.0602 0.7243 0.6543
vt 1.0602 0.2390 0.3338
vt 1.0395 0.7292 0.6473
vt 1.0395 0.2439 0.3268
vt 0.7561 0.3268 1.0395
vt 0.2708 0.6473 1.0395
vt 0.2589 0.6303 1.0309
vt 0.7442 0.3099 1.0309
vt 0.2471 0.6134 1.0395
vt 0.7323 0.2930 1.0395
vt -0.0395 0.2677 0.2930
vt -0.0395 0.7529 0.6134
vt -0.0602 0.7578 0.6064
vt -0.0602 0.2726 0.2860
vt -0.0808 0.7529 0.6134
vt -0.0808 0.2677 0.2930
vt 0.2677 0.2930 1.0808
vt 0.7529 0.6134 1.0808
vt 1.0643 0.8412 0.7421
vt 1.0643 0.1588 0.7421
vt 1.0999 0.1588 0.7405
vt 1.0999 0.8412 0.7405
vt 0.8412 0.6570 1.1778
vt 0.1588 0.6570 1.1778
vt 0.1588 0.6229 1.1750
vt 0.8412 0.6229 1.1750
vt 0.8412 0.6925 1.1713
vt 0.1588 0.6925 1.1713
vt 0.8412 0.7156 1.1581
vt 0.1588 0.7156 1.1581
vt 1.1331 0.8412 0.7310
vt 1.1331 0.1588 0.7310
vt 1.1581 0.1588 0.7156
vt 1.1581 0.8412 0.7156
vt -0.0643 0.8412 0.7014
vt -0.0932 0.8412 0.7000
vt -0.0932 0.1588 0.7000
vt -0.0643 0.1588 0.7014
vt 0.1588 0.6549 1.1367
vt 0.1588 0.6262 1.1344
vt 0.8412 0.6262 1.1344
vt 0.8412 0.6549 1.1367
vt 0.1588 0.6706 1.1347
vt 0.8412 0.6706 1.1347
vt 0.1588 0.6872 1.1288
vt 0.8412 0.6872 1.1288
vt -0.1133 0.8412 0.6957
vt -0.1288 0.8412 0.6872
vt -0.1288 0.1588 0.6872
vt -0.1133 0.1588 0.6957
vt -0.0643 0.7421 0.8412
vt -0.0999 0.7405 0.8412
vt -0.0932 0.7000 0.8412
vt -0.0643 0.7014 0.8412
vt 0.1588 0.7421 1.0000
vt 0.1588 0.7014 1.0000
vt 0.8412 0.7014 1.0000
vt 0.8412 0.7421 1.0000
vt 1.0643 0.7421 0.1588
vt 1.0643 0.7014 0.1588
vt 1.0932 0.7000 0.1588
vt 1.0999 0.7405 0.1588
vt -0.1750 0.6229 0.8412
vt -0.1344 0.6262 0.8412
vt -0.1367 0.6549 0.8412
vt -0.1778 0.6570 0.8412
vt 1.1750 0.6229 0.1588
vt 1.1778 0.6570 0.1588
vt 1.1367 0.6549 0.1588
vt 1.1344 0.6262 0.1588
vt -0.1750 0.1588 0.6229
vt -0.1344 0.1588 0.6262
vt -0.1344 0.8412 0.6262
vt -0.1750 0.8412 0.6229
vt -0.1347 0.6706 0.8412
vt -0.1713 0.6925 0.8412
vt 1.1713 0.6925 0.1588
vt 1.1347 0.6706 0.1588
vt -0.1288 0.6872 0.8412
vt -0.1581 0.7156 0.8412
vt 1.1581 0.7156 0.1588
vt 1.1288 0.6872 0.1588
vt -0.1331 0.7310 0.8412
vt -0.1133 0.6957 0.8412
vt 1.1331 0.7310 0.1588
vt 1.1133 0.6957 0.1588
vt 1.0000 0.1588 0.7421
vt 1.0000 0.8412 0.7421
vt -0.0000 0.7421 0.8412
vt -0.0000 0.7014 0.8412
vt -0.0000 0.8412 0.7014
vt 0.0000 0.1588 0.7014
vt 1.0000 0.7014 0.1588
vt 1.0000 0.7421 0.1588
# 220 texture coords

g bamboo_table_left
usemtl bamboo_table
s 8
f 1/1/1 2/2/1 3/3/2 4/4/2 
f 4/5/2 3/6/2 5/7/3 6/8/3 
f 6/8/3 5/7/3 7/9/4 8/10/4 
f 8/11/4 7/12/4 9/13/5 10/14/5 
f 10/14/5 9/13/5 11/15/6 12/16/6 
f 12/17/6 11/18/6 13/19/7 14/20/7 
f 14/20/7 13/19/7 15/21/8 16/22/8 
f 16/23/8 15/24/8 2/2/1 1/1/1 
f 17/25/1 18/26/1 19/27/2 20/28/2 
f 20/29/2 19/30/2 21/31/3 22/32/3 
f 22/32/3 21/31/3 23/33/4 24/34/4 
f 24/35/4 23/36/4 25/37/5 26/38/5 
f 26/38/5 25/37/5 27/39/6 28/40/6 
f 28/41/6 27/42/6 29/43/7 30/44/7 
f 30/44/7 29/43/7 31/45/8 32/46/8 
f 32/47/8 31/48/8 18/26/1 17/25/1 
f 33/49/1 34/50/1 35/51/9 36/52/9 
f 36/53/9 35/54/9 37/55/10 38/56/10 
f 38/56/10 37/55/10 39/57/11 40/58/11 
f 40/59/11 39/60/11 41/61/5 42/62/5 
f 42/62/5 41/61/5 43/63/12 44/64/12 
f 44/65/12 43/66/12 45/67/13 46/68/13 
f 46/68/13 45/67/13 47/69/14 48/70/14 
f 48/71/14 47/72/14 34/50/1 33/49/1 
f 49/73/1 50/74/1 51/75/15 52/76/15 
f 52/77/15 51/78/15 53/79/10 54/80/10 
f 54/80/10 53/79/10 55/81/16 56/82/16 
f 56/83/16 55/84/16 57/85/5 58/86/5 
f 58/86/5 57/85/5 59/87/17 60/88/17 
f 60/89/17 59/90/17 61/91/13 62/92/13 
f 62/92/13 61/91/13 63/93/18 64/94/18 
f 64/95/18 63/96/18 50/74/1 49/73/1 
f 65/97/19 66/98/20 67/99/21 68/100/22 
f 68/101/22 67/102/21 69/103/23 70/104/23 
f 70/104/23 69/103/23 71/105/24 72/106/25 
f 72/107/25 71/108/24 73/109/26 74/110/27 
f 74/110/27 73/109/26 75/111/28 76/112/29 
f 76/113/29 75/114/28 77/115/30 78/116/30 
f 78/116/30 77/115/30 79/117/31 80/118/32 
f 80/119/32 79/120/31 66/98/20 65/97/19 
f 81/121/33 82/122/34 83/123/35 84/124/36 
f 84/125/36 83/126/35 85/127/37 86/128/37 
f 86/128/37 85/127/37 87/129/38 88/130/39 
f 88/131/39 87/132/38 89/133/40 90/134/41 
f 90/134/41 89/133/40 91/135/42 92/136/43 
f 92/137/43 91/138/42 93/139/44 94/140/44 
f 94/140/44 93/139/44 95/141/45 96/142/46 
f 96/143/46 95/144/45 82/122/34 81/121/33 
s 2
f 97/145/47 98/146/47 99/147/48 100/148/48 
f 101/149/49 102/150/49 103/151/50 104/152/50 
f 105/153/51 106/154/51 102/150/49 101/149/49 
f 107/155/52 108/156/52 106/154/51 105/153/51 
f 109/157/53 110/158/53 108/159/52 107/160/52 
f 100/148/48 99/147/48 110/158/53 109/157/53 
f 111/161/54 112/162/55 113/163/55 114/164/54 
f 115/165/56 116/166/57 117/167/57 118/168/56 
f 119/169/58 115/165/56 118/168/56 120/170/58 
f 121/171/59 119/169/58 120/170/58 122/172/59 
f 123/173/60 121/174/59 122/175/59 124/176/60 
f 112/162/55 123/173/60 124/176/60 113/163/55 
s 1
f 97/177/3 100/178/3 112/179/3 111/180/3 
s 4
f 125/181/5 126/182/5 127/183/5 128/184/5 
s 1
f 98/185/7 114/186/7 113/187/7 99/188/7 
f 104/189/3 116/190/3 115/191/3 101/192/3 
f 103/193/7 102/194/7 118/195/7 117/196/7 
s 4
f 103/197/61 117/198/61 116/199/61 104/200/61 
s 1
f 101/192/3 115/191/3 119/201/3 105/202/3 
f 102/194/7 106/203/7 120/204/7 118/195/7 
f 105/202/3 119/201/3 121/205/3 107/206/3 
f 106/203/7 108/207/7 122/208/7 120/204/7 
f 109/209/3 107/206/3 121/205/3 123/210/3 
f 110/211/7 124/212/7 122/208/7 108/207/7 
f 100/178/3 109/209/3 123/210/3 112/179/3 
f 99/188/7 113/187/7 124/212/7 110/211/7 
s off
f 128/213/10 98/146/10 97/145/10 125/214/10 
f 125/215/3 97/177/3 111/180/3 126/216/3 
f 126/217/13 111/161/13 114/164/13 127/218/13 
f 127/219/7 114/186/7 98/185/7 128/220/7 
# 78 polygons

