# 3ds Max Wavefront OBJ Exporter v0.97b - (c)2007 guruware
# File Created: 27.01.2019 12:13:41

mtllib gothic_mirror_left.mtl

#
# object gothic_mirror_left
#

v  -39.4720 165.4995 -43.9689
v  -50.0000 172.1981 -43.9689
v  -50.0000 165.2585 -43.9689
v  -41.7227 158.9042 -43.9689
v  -22.0591 106.0637 -50.7797
v  -23.9821 112.7525 -50.7797
v  -23.9821 112.7525 -43.9690
v  -22.0591 106.0637 -43.9690
v  -20.3869 98.5388 -50.7797
v  -20.3869 98.5388 -43.9690
v  -30.8403 158.4050 -50.7797
v  -39.4720 165.4995 -50.7797
v  -30.8403 158.4050 -43.9689
v  -25.4011 151.1922 -50.7797
v  -25.4011 151.1922 -43.9690
v  -20.9079 142.6788 -50.7797
v  -20.9079 142.6788 -43.9690
v  -17.3606 133.1012 -50.7797
v  -17.3606 133.1012 -43.9690
v  -22.7071 136.3305 -50.7797
v  -22.0591 134.8256 -50.7797
v  -22.0591 134.8256 -43.9690
v  -22.7071 136.3305 -43.9690
v  -43.5621 123.9553 -50.7797
v  -37.5427 119.9421 -50.7797
v  -37.5427 119.9421 -43.9690
v  -43.5621 123.9553 -43.9690
v  -33.0273 128.1358 -50.7797
v  -33.0273 128.1358 -43.9690
v  -50.0000 172.1981 -50.7797
v  -50.0000 165.2585 -50.7797
v  -41.7227 158.9042 -50.7797
v  -20.6377 127.9695 -50.7797
v  -20.6377 127.9695 -43.9690
v  -15.5613 125.8884 -50.7797
v  -15.5613 125.8884 -43.9690
v  -19.9688 120.6119 -50.7797
v  -19.9688 120.6119 -43.9690
v  -50.0000 28.5213 -50.7797
v  -15.5613 28.5213 -50.7798
v  -15.5613 28.5213 -43.9690
v  -50.0000 28.5213 -43.9690
v  -50.0000 34.9277 -50.7797
v  -50.0000 34.9277 -43.9690
v  -45.3216 36.5163 -50.7797
v  -45.3216 36.5163 -43.9690
v  -33.2786 116.8485 -50.7797
v  -33.2786 116.8485 -43.9690
v  -35.2011 151.4630 -50.7797
v  -35.2011 151.4630 -43.9690
v  -31.1042 146.1955 -50.7797
v  -31.1042 146.1955 -43.9690
v  -28.2615 142.2658 -50.7797
v  -28.2615 142.2658 -43.9690
v  -27.0073 139.0887 -50.7797
v  -27.0073 139.0887 -43.9690
v  -27.0909 135.8279 -50.7797
v  -27.0909 135.8279 -43.9690
v  -22.9788 132.9861 -50.7797
v  -22.9788 132.9861 -43.9690
v  -27.9271 132.9015 -50.7797
v  -27.9271 132.9015 -43.9690
v  -23.7313 129.9762 -50.7797
v  -23.7313 129.9762 -43.9690
v  -25.8215 127.5515 -50.7797
v  -25.8215 127.5515 -43.9690
v  -30.0173 130.2260 -50.7797
v  -30.0173 130.2260 -43.9690
v  -28.5806 125.6284 -50.7797
v  -28.5806 125.6284 -43.9690
v  -31.8415 123.7054 -50.7797
v  -31.8415 123.7054 -43.9690
v  -26.9084 118.5216 -50.7797
v  -26.9084 118.5216 -43.9690
v  -30.5194 112.5844 -50.7797
v  -30.5194 112.5844 -43.9690
v  -28.0947 108.0695 -50.7797
v  -28.0947 108.0695 -43.9690
v  -25.9208 101.7988 -50.7797
v  -25.9208 101.7988 -43.9690
v  -19.6344 112.6689 -50.7797
v  -19.6344 112.6689 -43.9690
v  -15.5613 42.2600 -50.7797
v  -15.5613 42.2600 -43.9690
v  -24.0230 34.1044 -50.7797
v  -34.6057 33.9861 -50.7797
v  -34.6057 33.9861 -43.9690
v  -24.0230 34.1044 -43.9690
v  -24.8339 94.6920 -50.7797
v  -24.8339 94.6920 -43.9690
v  -24.0814 89.0901 -50.7797
v  -24.0815 89.0901 -43.9690
v  -24.0814 56.7499 -50.7797
v  -24.0816 56.7499 -43.9690
v  -25.3388 52.2349 -50.7797
v  -25.3388 52.2349 -43.9690
v  -28.3488 48.3889 -50.7797
v  -28.3488 48.3889 -43.9690
v  -27.5702 40.4599 -50.7797
v  -23.7865 43.5046 -50.7797
v  -23.7865 43.5046 -43.9690
v  -27.5702 40.4599 -43.9690
v  -32.1949 44.5428 -50.7797
v  -32.1949 44.5428 -43.9690
v  -31.2949 38.3316 -50.7797
v  -31.2949 38.3316 -43.9690
v  -35.7065 41.7001 -50.7797
v  -35.7065 41.7001 -43.9690
v  -38.1677 35.4642 -50.7797
v  -38.1677 35.4642 -43.9690
v  -40.4722 39.0246 -50.7797
v  -40.4722 39.0246 -43.9690
v  -36.5863 34.2226 -50.7797
v  -36.5864 34.2221 -43.9690
v  -15.5613 98.8419 -43.9690
v  -15.5613 117.5555 -43.9690
v  -15.5613 117.5555 -50.7797
v  -15.5613 98.8419 -50.7797
v  -15.5613 55.9987 -43.9690
v  -15.5613 55.9987 -50.7797
v  -32.8684 125.6702 -45.7461
v  -26.3694 133.3487 -45.7461
v  -26.6663 142.0396 -45.7461
v  -35.4699 153.8346 -45.7461
v  -50.0000 166.3712 -45.7461
v  -23.1756 99.1767 -45.7461
v  -50.0000 33.9052 -45.7462
v  -35.1229 39.4845 -45.7462
v  -22.7727 54.7378 -45.7461
# 129 vertices

vn 0.0000 0.0000 1.0000
vn 0.9691 0.2467 -0.0000
vn 0.9306 0.3660 -0.0000
vn 0.9762 0.2169 -0.0000
vn 0.7217 0.6922 -0.0000
vn 0.5870 0.8096 -0.0000
vn 0.8441 0.5362 -0.0000
vn 0.9130 0.4079 -0.0000
vn 0.9555 0.2951 -0.0000
vn -0.9185 -0.3955 -0.0000
vn -0.9537 -0.3008 -0.0000
vn -0.5547 -0.8320 -0.0000
vn -0.5711 -0.8209 -0.0000
vn -0.4727 0.8812 -0.0000
vn -0.3688 0.9295 -0.0000
vn -1.0000 0.0000 -0.0000
vn 0.5368 0.8437 -0.0000
vn -0.6089 -0.7932 -0.0000
vn -0.6838 -0.7297 -0.0000
vn -0.9891 -0.1470 -0.0000
vn 0.9925 0.1219 -0.0000
vn -0.9978 -0.0663 -0.0000
vn 0.0000 -1.0000 -0.0000
vn -0.3916 0.9201 -0.0000
vn -0.3215 0.9469 -0.0000
vn -0.7257 -0.6880 -0.0000
vn -0.7710 -0.6368 -0.0000
vn -0.7999 -0.6001 -0.0000
vn -0.8770 -0.4804 -0.0000
vn -0.8771 -0.4804 -0.0000
vn -0.9847 -0.1743 -0.0000
vn -0.9885 0.1514 -0.0000
vn 0.9867 -0.1623 -0.0000
vn 0.9967 -0.0810 -0.0000
vn -0.8912 0.4536 -0.0000
vn 0.8878 -0.4602 -0.0000
vn 0.6699 -0.7425 -0.0000
vn -0.6870 0.7267 -0.0000
vn 0.5403 -0.8415 -0.0000
vn 0.5080 -0.8614 -0.0000
vn 0.8168 0.5770 -0.0000
vn 0.7244 0.6894 -0.0000
vn -0.8610 -0.5086 -0.0000
vn -0.9158 -0.4016 -0.0000
vn -0.9707 -0.2404 -0.0000
vn -1.0000 0.0056 -0.0000
vn 1.0000 0.0000 -0.0000
vn -0.9986 0.0532 -0.0000
vn -0.0112 0.9999 -0.0000
vn 0.0538 0.9986 -0.0000
vn 0.0537 0.9986 -0.0000
vn -0.9898 -0.1422 -0.0000
vn -0.9978 -0.0667 -0.0000
vn -0.9908 0.1354 -0.0000
vn -0.8925 0.4510 -0.0000
vn -0.8926 0.4509 -0.0000
vn -0.7487 0.6629 -0.0000
vn 0.5633 -0.8263 -0.0000
vn 0.6269 -0.7791 -0.0000
vn -0.6691 0.7432 -0.0000
vn 0.4414 -0.8973 -0.0000
vn -0.5614 0.8276 -0.0000
vn 0.3850 -0.9229 -0.0000
vn -0.4745 0.8802 -0.0000
vn 0.3822 0.9241 -0.0000
vn 0.6175 0.7865 0.0001
vn 0.6177 0.7864 -0.0000
vn -0.9997 0.0251 -0.0000
# 68 vertex normals

vt 0.4331 1.1514 0.4659
vt 0.3278 1.2184 0.4659
vt 0.3278 1.1490 0.4659
vt 0.4106 1.0854 0.4659
vt 0.5341 0.5570 0.6072
vt 0.5341 0.6239 0.5880
vt 0.4659 0.6239 0.5880
vt 0.4659 0.5570 0.6072
vt 0.5341 0.4818 0.6239
vt 0.4659 0.4818 0.6239
vt 0.5194 0.5341 1.0805
vt 0.4331 0.5341 1.1514
vt 0.4331 0.4659 1.1514
vt 0.5194 0.4659 1.0805
vt 0.5341 1.0083 0.5738
vt 0.5341 1.0805 0.5194
vt 0.4659 1.0805 0.5194
vt 0.4659 1.0083 0.5738
vt 0.5341 0.9232 0.6187
vt 0.4659 0.9232 0.6187
vt 0.5341 0.8274 0.6542
vt 0.4659 0.8274 0.6542
vt 0.4659 0.8597 0.6007
vt 0.4659 0.8447 0.6072
vt 0.5341 0.8447 0.6072
vt 0.5341 0.8597 0.6007
vt 0.6078 0.5341 0.7360
vt 0.5476 0.5341 0.6958
vt 0.5476 0.4659 0.6958
vt 0.6078 0.4659 0.7360
vt 0.4975 0.5341 0.7778
vt 0.3922 0.5341 0.7360
vt 0.3922 0.4659 0.7360
vt 0.4975 0.4659 0.7778
vt 0.4659 1.2184 0.3278
vt 0.4659 1.1490 0.3278
vt 0.5341 1.1490 0.3278
vt 0.5341 1.2184 0.3278
vt 0.3278 0.5341 1.2184
vt 0.3278 0.4659 1.2184
vt 0.6722 0.5341 1.1490
vt 0.5894 0.5341 1.0854
vt 0.5894 0.4659 1.0854
vt 0.6722 0.4659 1.1490
vt 0.4659 0.7761 0.6214
vt 0.5341 0.7761 0.6214
vt 0.5341 0.7553 0.6722
vt 0.4659 0.7553 0.6722
vt 0.4659 0.7025 0.6281
vt 0.5341 0.7025 0.6281
vt 0.6722 0.5341 -0.2184
vt 0.3278 0.5341 -0.2184
vt 0.3278 0.4659 -0.2184
vt 0.6722 0.4659 -0.2184
vt 0.4659 -0.1543 0.3278
vt 0.4659 -0.2184 0.3278
vt 0.5341 -0.2184 0.3278
vt 0.5341 -0.1543 0.3278
vt 0.3746 0.5341 -0.1384
vt 0.3278 0.5341 -0.1543
vt 0.3278 0.4659 -0.1543
vt 0.3746 0.4659 -0.1384
vt 0.5050 0.5341 0.6649
vt 0.5050 0.4659 0.6649
vt 0.4659 1.0854 0.4106
vt 0.4659 1.0110 0.4758
vt 0.5341 1.0110 0.4758
vt 0.5341 1.0854 0.4106
vt 0.4659 0.9584 0.5168
vt 0.5341 0.9584 0.5168
vt 0.4659 0.9191 0.5452
vt 0.5341 0.9191 0.5452
vt 0.4659 0.8873 0.5577
vt 0.5341 0.8873 0.5577
vt 0.4659 0.8547 0.5569
vt 0.5341 0.8547 0.5569
vt 0.5341 0.8263 0.5980
vt 0.4659 0.8263 0.5980
vt 0.4659 0.8254 0.5485
vt 0.5341 0.8254 0.5485
vt 0.5341 0.7962 0.5905
vt 0.4659 0.7962 0.5905
vt 0.5341 0.7719 0.5696
vt 0.4659 0.7719 0.5696
vt 0.4659 0.7987 0.5276
vt 0.5341 0.7987 0.5276
vt 0.4580 0.5341 0.7527
vt 0.4304 0.5341 0.7719
vt 0.4304 0.4659 0.7719
vt 0.4580 0.4659 0.7527
vt 0.5276 0.5341 0.7987
vt 0.5276 0.4659 0.7987
vt 0.4906 0.5341 0.7335
vt 0.4906 0.4659 0.7335
vt 0.5341 0.6816 0.5587
vt 0.5341 0.7335 0.5094
vt 0.4659 0.7335 0.5094
vt 0.4659 0.6816 0.5587
vt 0.4659 0.6649 0.4950
vt 0.4659 0.6222 0.5226
vt 0.5341 0.6222 0.5226
vt 0.5341 0.6649 0.4950
vt 0.4659 0.5771 0.5469
vt 0.5341 0.5771 0.5469
vt 0.4659 0.5144 0.5686
vt 0.5341 0.5144 0.5686
vt 0.4659 0.6231 0.6315
vt 0.5341 0.6231 0.6315
vt 0.5341 -0.0810 0.6722
vt 0.4659 -0.0810 0.6722
vt 0.4659 -0.2184 0.6722
vt 0.5341 -0.2184 0.6722
vt 0.5876 0.5341 -0.1626
vt 0.4817 0.5341 -0.1637
vt 0.4817 0.4659 -0.1637
vt 0.5876 0.4659 -0.1626
vt 0.4659 0.4433 0.5795
vt 0.5341 0.4433 0.5795
vt 0.4659 0.3873 0.5870
vt 0.5341 0.3873 0.5870
vt 0.4659 0.0639 0.5870
vt 0.5341 0.0639 0.5870
vt 0.4659 0.0188 0.5744
vt 0.5341 0.0188 0.5744
vt 0.4659 -0.0197 0.5443
vt 0.5341 -0.0197 0.5443
vt 0.4479 0.5341 -0.0990
vt 0.4101 0.5341 -0.0686
vt 0.4101 0.4659 -0.0686
vt 0.4479 0.4659 -0.0990
vt 0.4659 -0.0582 0.5059
vt 0.5341 -0.0582 0.5059
vt 0.4851 0.5341 -0.1203
vt 0.4851 0.4659 -0.1203
vt 0.5059 0.5341 -0.0582
vt 0.4707 0.5341 -0.0866
vt 0.4707 0.4659 -0.0866
vt 0.5059 0.4659 -0.0582
vt 0.5539 0.5341 -0.1490
vt 0.5539 0.4659 -0.1490
vt 0.4231 0.5341 -0.1134
vt 0.4231 0.4659 -0.1134
vt 0.4619 0.5341 -0.1614
vt 0.4461 0.5341 -0.1490
vt 0.4461 0.4659 -0.1490
vt 0.4619 0.4659 -0.1614
vt 0.4758 1.0110 0.4659
vt 0.5194 1.0805 0.4659
vt 0.5168 0.9584 0.4659
vt 0.5738 1.0083 0.4659
vt 0.5452 0.9191 0.4659
vt 0.5569 0.8547 0.4659
vt 0.5980 0.8263 0.4659
vt 0.6007 0.8597 0.4659
vt 0.5577 0.8873 0.4659
vt 0.6187 0.9232 0.4659
vt 0.5485 0.8254 0.4659
vt 0.5905 0.7962 0.4659
vt 0.5276 0.7987 0.4659
vt 0.5696 0.7719 0.4659
vt 0.4975 0.7778 0.4659
vt 0.5420 0.7527 0.4659
vt 0.5094 0.7335 0.4659
vt 0.3922 0.7360 0.4659
vt 0.4524 0.6958 0.4659
vt 0.5587 0.6816 0.4659
vt 0.4950 0.6649 0.4659
vt 0.5226 0.6222 0.4659
vt 0.5880 0.6239 0.4659
vt 0.5469 0.5771 0.4659
vt 0.5686 0.5144 0.4659
vt 0.6072 0.5570 0.4659
vt 0.5795 0.4433 0.4659
vt 0.6239 0.4818 0.4659
vt 0.5870 0.3873 0.4659
vt 0.6722 0.4848 0.4659
vt 0.6542 0.8274 0.4659
vt 0.6072 0.8447 0.4659
vt 0.6214 0.7761 0.4659
vt 0.6722 0.7553 0.4659
vt 0.4659 0.6720 0.6722
vt 0.5341 0.6720 0.6722
vt 0.6281 0.7025 0.4659
vt 0.6722 0.6720 0.4659
vt 0.6315 0.6231 0.4659
vt 0.4659 0.4848 0.6722
vt 0.5341 0.4848 0.6722
vt 0.4461 -0.1490 0.4659
vt 0.4231 -0.1134 0.4659
vt 0.3746 -0.1384 0.4659
vt 0.3278 -0.1543 0.4659
vt 0.4619 -0.1614 0.4659
vt 0.3278 -0.2184 0.4659
vt 0.4817 -0.1637 0.4659
vt 0.6722 -0.2184 0.4659
vt 0.5876 -0.1626 0.4659
vt 0.6722 -0.0810 0.4659
vt 0.5899 -0.0686 0.4659
vt 0.5870 0.0639 0.4659
vt 0.5744 0.0188 0.4659
vt 0.5443 -0.0197 0.4659
vt 0.5059 -0.0582 0.4659
vt 0.5521 -0.0990 0.4659
vt 0.4707 -0.0866 0.4659
vt 0.5149 -0.1203 0.4659
vt 0.4659 0.0564 0.6722
vt 0.5341 0.0564 0.6722
vt 0.6722 0.0564 0.4659
vt 0.4659 -0.1626 0.5876
vt 0.5341 -0.1626 0.5876
vt 0.5341 -0.0686 0.5899
vt 0.4659 -0.0686 0.5899
vt 0.4991 0.7531 0.4837
vt 0.5641 0.8299 0.4837
vt 0.5611 0.9168 0.4837
vt 0.4731 1.0347 0.4837
vt 0.3278 1.1601 0.4837
vt 0.5961 0.4882 0.4837
vt 0.3278 -0.1645 0.4837
vt 0.4766 -0.1088 0.4837
vt 0.6001 0.0438 0.4837
# 221 texture coords

g gothic_mirror_left
usemtl gothic_mirror_left
s 1
f 1/1/1 2/2/1 3/3/1 4/4/1 
s 2
f 5/5/2 6/6/3 7/7/3 8/8/2 
f 9/9/4 5/5/2 8/8/2 10/10/4 
f 11/11/5 12/12/6 1/13/6 13/14/5 
f 14/15/7 11/16/5 13/17/5 15/18/7 
f 16/19/8 14/15/7 15/18/7 17/20/8 
f 18/21/9 16/19/8 17/20/8 19/22/9 
s 4
f 20/23/10 21/24/11 22/25/11 23/26/10 
s 2
f 24/27/12 25/28/13 26/29/13 27/30/12 
s 4
f 28/31/14 24/32/15 27/33/15 29/34/14 
s 8
f 30/35/16 31/36/16 3/37/16 2/38/16 
s 2
f 12/12/6 30/39/17 2/40/17 1/13/6 
s 4
f 31/41/18 32/42/19 4/43/19 3/44/18 
f 21/24/11 33/45/20 34/46/20 22/25/11 
s 2
f 35/47/21 18/21/9 19/22/9 36/48/21 
s 4
f 33/45/20 37/49/22 38/50/22 34/46/20 
f 39/51/23 40/52/23 41/53/23 42/54/23 
s 8
f 43/55/16 39/56/16 42/57/16 44/58/16 
s 2
f 45/59/24 43/60/25 44/61/25 46/62/24 
f 25/28/13 47/63/26 48/64/26 26/29/13 
s 4
f 32/65/19 49/66/27 50/67/27 4/68/19 
f 49/66/27 51/69/28 52/70/28 50/67/27 
f 51/69/28 53/71/29 54/72/30 52/70/28 
f 53/71/29 55/73/31 56/74/31 54/72/30 
f 55/73/31 57/75/32 58/76/32 56/74/31 
s 8
f 59/77/33 20/26/34 23/23/34 60/78/33 
s 4
f 57/75/32 61/79/35 62/80/35 58/76/32 
s 8
f 63/81/36 59/77/33 60/78/33 64/82/36 
f 65/83/37 63/81/36 64/82/36 66/84/37 
s 4
f 61/79/35 67/85/38 68/86/38 62/80/35 
s 8
f 69/87/39 65/88/37 66/89/37 70/90/39 
s 4
f 67/91/38 28/31/14 29/34/14 68/92/38 
s 8
f 71/93/40 69/87/39 70/90/39 72/94/40 
s 2
f 73/95/41 71/96/42 72/97/42 74/98/41 
f 47/99/26 75/100/43 76/101/43 48/102/26 
f 6/6/3 73/95/41 74/98/41 7/7/3 
f 75/100/43 77/103/44 78/104/44 76/101/43 
f 77/103/44 79/105/45 80/106/45 78/104/44 
s 4
f 37/49/22 81/107/46 82/108/46 38/50/22 
s 2
f 83/109/47 84/110/47 41/111/47 40/112/47 
s 4
f 81/107/46 9/10/48 10/9/48 82/108/46 
f 85/113/49 86/114/50 87/115/51 88/116/49 
s 2
f 79/105/45 89/117/52 90/118/52 80/106/45 
f 89/117/52 91/119/53 92/120/53 90/118/52 
f 93/121/54 94/122/54 92/120/53 91/119/53 
f 93/121/54 95/123/55 96/124/56 94/122/54 
f 95/123/55 97/125/57 98/126/57 96/124/56 
s 8
f 99/127/58 100/128/59 101/129/59 102/130/58 
s 2
f 97/125/57 103/131/60 104/132/60 98/126/57 
s 8
f 105/133/61 99/127/58 102/130/58 106/134/61 
s 2
f 103/135/60 107/136/62 108/137/62 104/138/60 
s 8
f 109/139/63 105/133/61 106/134/61 110/140/63 
s 2
f 107/136/62 111/141/64 112/142/64 108/137/62 
f 111/141/64 45/59/24 46/62/24 112/142/64 
s 4
f 113/143/65 109/144/66 110/145/67 114/146/65 
f 86/114/50 113/143/65 114/146/65 87/115/51 
s 1
f 4/4/1 50/147/1 13/148/1 1/1/1 
f 50/147/1 52/149/1 15/150/1 13/148/1 
f 15/150/1 52/149/1 54/151/1 
f 58/152/1 60/153/1 23/154/1 56/155/1 
f 23/154/1 15/150/1 54/151/1 56/155/1 
f 15/150/1 23/154/1 17/156/1 
f 62/157/1 64/158/1 60/153/1 58/152/1 
f 62/157/1 68/159/1 66/160/1 64/158/1 
f 68/159/1 29/161/1 70/162/1 66/160/1 
f 72/163/1 70/162/1 29/161/1 27/164/1 
f 26/165/1 74/166/1 72/163/1 27/164/1 
f 74/166/1 26/165/1 48/167/1 
f 76/168/1 7/169/1 74/166/1 48/167/1 
f 7/169/1 76/168/1 78/170/1 
f 78/170/1 80/171/1 8/172/1 7/169/1 
f 80/171/1 90/173/1 10/174/1 8/172/1 
f 92/175/1 115/176/1 10/174/1 90/173/1 
f 19/177/1 17/156/1 23/154/1 22/178/1 
f 19/177/1 22/178/1 34/179/1 36/180/1 
s 2
f 35/47/21 36/48/21 116/181/47 117/182/47 
s 1
f 36/180/1 34/179/1 38/183/1 116/184/1 
f 82/185/1 116/184/1 38/183/1 
s 2
f 117/182/47 116/181/47 115/186/47 118/187/47 
s 1
f 115/176/1 116/184/1 82/185/1 10/174/1 
f 110/188/1 112/189/1 46/190/1 
f 110/188/1 46/190/1 44/191/1 
f 114/192/1 110/188/1 44/191/1 42/193/1 
f 114/192/1 42/193/1 87/194/1 
f 41/195/1 88/196/1 87/194/1 42/193/1 
f 84/197/1 101/198/1 88/196/1 41/195/1 
f 101/198/1 94/199/1 96/200/1 
f 101/198/1 96/200/1 98/201/1 
f 98/201/1 104/202/1 102/203/1 101/198/1 
f 104/202/1 108/204/1 106/205/1 102/203/1 
f 108/204/1 112/189/1 110/188/1 106/205/1 
s 2
f 118/187/47 115/186/47 119/206/47 120/207/47 
s 1
f 119/208/1 115/176/1 92/175/1 94/199/1 
s 2
f 120/207/47 119/206/47 84/110/47 83/109/47 
f 85/209/68 88/210/68 101/211/68 100/212/68 
s 1
f 119/208/1 94/199/1 101/198/1 84/197/1 
usemtl gothic_mirror_glass
f 121/213/1 122/214/1 123/215/1 124/216/1 
f 121/213/1 124/216/1 125/217/1 
f 126/218/1 121/213/1 125/217/1 127/219/1 
f 127/219/1 128/220/1 129/221/1 126/218/1 
# 89 polygons - 11 triangles

