# 3ds Max Wavefront OBJ Exporter v0.97b - (c)2007 guruware
# File Created: 27.01.2019 15:08:37

mtllib clock.mtl

#
# object clock
#

v  4.7076 200.9405 -26.6391
v  11.2594 207.1342 -26.6391
v  -0.7352 207.1342 -26.6391
v  -1.4323 201.6921 -26.6391
v  6.0337 163.3571 -26.6391
v  4.8762 153.3598 -26.6391
v  11.3820 153.3598 -26.6391
v  11.4428 166.3580 -26.6391
v  24.7342 153.3598 -26.6391
v  15.6598 170.8835 -26.6391
v  24.7342 173.8121 -26.6391
v  18.2720 176.4906 -26.6391
v  24.7342 176.9314 -26.6391
v  19.0236 182.6305 -26.6391
v  24.7342 187.0775 -26.6391
v  17.8411 188.7022 -26.6391
v  24.7342 207.1342 -26.6391
v  14.8402 194.1113 -26.6391
v  10.3147 198.3283 -26.6391
v  15.0026 207.1342 -26.6391
v  -0.0380 162.1746 -26.6391
v  0.0000 153.3598 -26.6391
v  -6.1779 162.9262 -26.6391
v  -4.8762 153.3598 -26.6391
v  -11.7850 165.5384 -26.6391
v  -11.3820 153.3598 -26.6391
v  -16.3105 169.7554 -26.6391
v  -24.7342 153.3598 -26.6391
v  -19.3114 175.1645 -26.6391
v  -24.7342 173.5287 -26.6391
v  -20.4939 181.2362 -26.6391
v  -24.7342 176.6479 -26.6391
v  -19.7423 187.3761 -26.6391
v  -24.7342 187.0775 -26.6391
v  -17.1301 192.9832 -26.6391
v  -24.7342 207.1342 -26.6391
v  -7.5040 200.5096 -26.6391
v  -12.7297 207.1342 -26.6391
v  -16.4729 207.1342 -26.6391
v  -12.9131 197.5087 -26.6391
v  -1.3881 200.4388 -28.1620
v  4.3624 199.7349 -28.1620
v  10.6703 167.3459 -28.1620
v  5.6043 164.5354 -28.1620
v  14.6199 171.5844 -28.1620
v  17.0664 176.8359 -28.1620
v  17.7703 182.5863 -28.1620
v  16.6628 188.2729 -28.1620
v  13.8523 193.3389 -28.1620
v  9.6138 197.2884 -28.1620
v  -0.0822 163.4279 -28.1620
v  -5.8327 164.1319 -28.1620
v  -11.0841 166.5783 -28.1620
v  -15.3226 170.5279 -28.1620
v  -18.1331 175.5939 -28.1620
v  -19.2406 181.2804 -28.1620
v  -18.5367 187.0309 -28.1620
v  -16.0902 192.2824 -28.1620
v  -12.1406 196.5208 -28.1621
v  -7.0746 199.3313 -28.1620
v  -0.7352 181.9334 -28.1620
v  0.7352 144.7883 -26.6391
v  -3.0644 144.6353 -26.6391
v  -3.0644 144.6353 -28.0224
v  0.7352 144.7883 -28.0224
v  -8.1338 143.9756 -26.6391
v  -8.1338 143.9756 -28.0224
v  -12.0921 142.1700 -26.6391
v  -12.0921 142.1700 -28.0224
v  -14.2102 139.6700 -26.6391
v  -14.2102 139.6700 -28.0224
v  -14.9444 137.2395 -26.6391
v  -14.9444 137.2395 -28.0224
v  -14.9444 122.2308 -26.6391
v  -14.9444 122.2308 -28.0224
v  -13.7832 119.1752 -26.6391
v  -13.7832 119.1752 -28.0224
v  -11.5278 117.2655 -28.0224
v  -11.5278 117.2655 -26.6391
v  -8.6111 116.6058 -26.6391
v  -8.6111 116.6058 -28.0224
v  0.7352 116.6058 -26.6391
v  0.7352 116.6058 -28.0224
v  4.5347 144.6353 -28.0224
v  4.5347 144.6353 -26.6391
v  9.6041 143.9756 -28.0224
v  9.6041 143.9756 -26.6391
v  13.5624 142.1700 -28.0224
v  13.5624 142.1700 -26.6391
v  15.6805 139.6700 -28.0224
v  15.6805 139.6700 -26.6391
v  16.4148 137.2395 -28.0224
v  16.4148 137.2395 -26.6391
v  16.4148 122.2308 -28.0224
v  16.4148 122.2308 -26.6391
v  15.2536 119.1753 -28.0224
v  15.2536 119.1753 -26.6391
v  12.9981 117.2655 -28.0224
v  10.0814 116.6058 -28.0224
v  10.0814 116.6058 -26.6391
v  12.9981 117.2655 -26.6391
v  -11.2594 108.9150 -26.6391
v  0.7352 108.9150 -26.6391
v  -24.7342 142.0229 -26.6391
v  -24.7342 138.9036 -26.6391
v  -24.7342 119.6422 -26.6391
v  -24.7342 108.9150 -26.6391
v  -15.0025 108.9150 -26.6391
v  24.7342 142.0229 -26.6391
v  24.7342 138.9036 -26.6391
v  24.7342 119.6422 -26.6391
v  24.7342 108.9150 -26.6391
v  12.7298 108.9150 -26.6391
v  16.4729 108.9150 -26.6391
v  11.2594 207.1342 -50.0649
v  -0.7351 207.1342 -50.0649
v  24.7342 153.3598 -50.0649
v  24.7342 164.6967 -50.0649
v  24.7342 167.8160 -50.0649
v  24.7342 187.0775 -50.0649
v  24.7342 207.1342 -50.0649
v  15.0026 207.1342 -50.0649
v  -24.7342 173.5287 -50.0649
v  -24.7342 153.3598 -50.0649
v  -24.7342 167.8160 -50.0649
v  -24.7342 187.0775 -50.0649
v  -24.7342 207.1342 -50.0649
v  -12.7297 207.1342 -50.0649
v  -16.4729 207.1342 -50.0649
v  -11.2594 108.9150 -50.0649
v  0.7352 108.9150 -50.0649
v  -24.7342 142.0229 -50.0649
v  -24.7342 138.9036 -50.0649
v  -24.7342 119.6422 -50.0649
v  -24.7342 108.9150 -50.0649
v  -15.0025 108.9150 -50.0649
v  24.7342 142.0229 -50.0649
v  24.7342 138.9036 -50.0649
v  24.7342 119.6422 -50.0649
v  24.7342 108.9150 -50.0649
v  12.7298 108.9150 -50.0649
v  16.4729 108.9150 -50.0649
v  0.0000 155.6922 -50.0649
v  7.3058 127.3720 -31.8310
v  6.3862 130.8040 -31.8310
v  6.3862 130.8040 -30.9298
v  7.3058 127.3720 -30.9298
v  3.8738 133.3165 -31.8310
v  3.8738 133.3165 -30.9298
v  0.4417 134.2361 -31.8310
v  0.4417 134.2361 -30.9298
v  -2.9903 133.3165 -31.8310
v  -2.9903 133.3165 -30.9298
v  -5.5028 130.8040 -31.8310
v  -5.5028 130.8040 -30.9298
v  -6.4224 127.3720 -31.8310
v  -6.4224 127.3720 -30.9298
v  -5.5028 123.9399 -31.8310
v  -5.5028 123.9399 -30.9298
v  -2.9903 121.4275 -31.8310
v  -2.9903 121.4275 -30.9298
v  0.4417 120.5079 -31.8310
v  0.4417 120.5079 -30.9298
v  3.8738 121.4275 -31.8310
v  3.8738 121.4275 -30.9298
v  6.3862 123.9399 -31.8310
v  6.3862 123.9399 -30.9298
v  0.4417 127.3720 -30.9298
v  -19.8226 113.9173 -33.9473
v  19.0663 113.9173 -33.9473
v  19.0663 148.3618 -33.9473
v  -19.8226 148.3618 -33.9473
v  24.7342 108.9150 -27.2366
v  27.4357 108.9150 -28.3556
v  27.4356 207.1342 -28.3556
v  24.7342 207.1342 -27.2366
v  28.5546 108.9150 -31.0570
v  28.5546 207.1342 -31.0571
v  28.5546 108.9150 -50.0649
v  28.5546 207.1342 -50.0649
v  -24.7342 108.9150 -27.2366
v  -24.7342 207.1342 -27.2367
v  -27.4356 207.1342 -28.3556
v  -27.4356 108.9150 -28.3556
v  -28.5546 207.1342 -31.0571
v  -28.5546 108.9150 -31.0571
v  -27.4356 207.1342 -50.0649
v  27.4356 207.1342 -50.0649
v  -25.0868 206.9315 -27.2367
v  25.3075 206.9315 -27.2366
v  25.3075 209.6329 -28.3556
v  -25.0868 209.6329 -28.3556
v  25.3075 210.7519 -31.0571
v  -25.0868 210.7519 -31.0571
v  25.3075 210.7519 -50.0649
v  -25.0868 210.7519 -50.0671
v  25.3075 206.9315 -50.0649
v  25.3075 209.6329 -50.0649
v  -25.0868 209.6329 -50.0641
v  -25.0753 207.0328 -50.0634
v  -28.5546 207.1342 -50.0649
v  -28.5546 108.9150 -50.0649
v  -0.7520 133.3456 -31.4395
v  1.4086 133.3456 -31.4395
v  1.4086 149.9921 -31.4395
v  -0.7520 149.9921 -31.4395
v  -0.7520 133.3456 -32.1270
v  -0.7520 149.9921 -32.1270
v  1.4086 149.9921 -32.1270
v  1.4086 133.3456 -32.1270
v  0.8211 181.8190 -28.2777
v  0.6108 182.6037 -28.2777
v  0.6108 182.6037 -26.9415
v  0.8211 181.8190 -26.9415
v  0.0364 183.1781 -28.2777
v  0.0364 183.1781 -26.9415
v  -0.7482 183.3884 -28.2777
v  -0.7482 183.3884 -26.9415
v  -1.5329 183.1781 -28.2777
v  -1.5329 183.1781 -26.9415
v  -2.1073 182.6037 -28.2777
v  -2.1073 182.6037 -26.9415
v  -2.3176 181.8190 -28.2777
v  -2.3176 181.8190 -26.9415
v  -2.1073 181.0343 -28.2777
v  -2.1073 181.0343 -26.9415
v  -1.5329 180.4599 -28.2777
v  -1.5329 180.4599 -26.9415
v  -0.7482 180.2497 -28.2777
v  -0.7482 180.2497 -26.9415
v  0.0364 180.4599 -28.2777
v  0.0364 180.4599 -26.9415
v  0.6108 181.0343 -28.2777
v  0.6108 181.0343 -26.9415
v  -1.0975 183.1417 -28.1223
v  10.4998 185.1866 -28.1223
v  10.9481 182.6441 -28.1223
v  -0.6492 180.5992 -28.1223
v  -1.0975 183.1417 -27.5788
v  -0.6492 180.5992 -27.5788
v  10.9481 182.6441 -27.5788
v  10.4998 185.1866 -27.5788
v  -1.1972 181.3883 -28.1223
v  -1.1972 198.4101 -28.1223
v  0.1802 198.4101 -28.1223
v  0.1802 181.3883 -28.1223
v  -1.1972 181.3883 -27.5788
v  0.1802 181.3883 -27.5788
v  0.1802 198.4101 -27.5788
v  -1.1972 198.4101 -27.5788
# 250 vertices

vn -0.0000 0.0000 1.0000
vn -0.0000 -0.0000 1.0000
vn 0.0000 0.0000 1.0000
vn 0.0000 -0.0000 1.0000
vn -0.2125 -0.7421 0.6357
vn 0.0272 -0.7715 0.6357
vn -0.2643 0.7253 0.6357
vn -0.4755 0.6081 0.6357
vn -0.6401 0.4314 0.6357
vn -0.7421 0.2125 0.6357
vn -0.7715 -0.0272 0.6357
vn -0.7253 -0.2643 0.6357
vn -0.6081 -0.4755 0.6357
vn -0.4314 -0.6401 0.6357
vn -0.0272 0.7715 0.6357
vn 0.2125 0.7421 0.6357
vn 0.4314 0.6401 0.6357
vn 0.6081 0.4755 0.6357
vn 0.7253 0.2643 0.6357
vn 0.7715 0.0272 0.6357
vn 0.7421 -0.2125 0.6357
vn 0.6401 -0.4314 0.6357
vn 0.2643 -0.7253 0.6357
vn 0.4755 -0.6081 0.6357
vn -0.0000 -1.0000 -0.0000
vn 0.0847 -0.9964 -0.0000
vn 0.2751 -0.9614 -0.0000
vn 0.6035 -0.7973 -0.0000
vn 0.8785 -0.4778 0.0000
vn 0.9893 -0.1462 0.0000
vn 0.9836 0.1806 0.0000
vn 0.8164 0.5775 0.0000
vn 0.4462 0.8949 0.0000
vn 0.1110 0.9938 0.0000
vn 0.0000 1.0000 0.0000
vn -0.0847 -0.9964 -0.0000
vn -0.2751 -0.9614 -0.0000
vn -0.6035 -0.7973 -0.0000
vn -0.8785 -0.4778 -0.0000
vn -0.9893 -0.1462 -0.0000
vn -0.9836 0.1806 -0.0000
vn -0.8164 0.5775 -0.0000
vn -0.4462 0.8949 0.0000
vn -0.1110 0.9938 0.0000
vn 0.0000 1.0000 -0.0000
vn 1.0000 -0.0000 0.0000
vn 1.0000 0.0000 0.0000
vn -1.0000 -0.0000 -0.0000
vn -1.0000 0.0000 -0.0000
vn -0.0000 1.0000 -0.0000
vn 0.0000 -1.0000 0.0000
vn -0.0000 -1.0000 0.0000
vn 0.0000 -1.0000 -0.0000
vn 0.0000 -0.0000 -1.0000
vn 0.0000 0.0000 -1.0000
vn -0.4401 -0.8979 -0.0000
vn -0.0000 -0.0000 -1.0000
vn 0.8660 0.5000 0.0000
vn 0.5000 0.8660 0.0000
vn -0.5000 0.8660 0.0000
vn -0.8660 0.5000 -0.0000
vn -0.8660 -0.5000 -0.0000
vn -0.5000 -0.8660 -0.0000
vn 0.5000 -0.8660 -0.0000
vn 0.8660 -0.5000 0.0000
vn 0.3827 0.0000 0.9239
vn 0.7071 0.0000 0.7071
vn 0.9239 0.0000 0.3827
vn -0.3827 0.0000 0.9239
vn -0.7071 -0.0000 0.7071
vn -0.9239 -0.0000 0.3827
vn -0.0000 0.3827 0.9239
vn -0.0000 0.7071 0.7071
vn 0.0000 0.9239 0.3827
vn -1.0000 -0.0022 -0.0003
vn 1.0000 -0.0000 -0.0000
vn -0.8660 0.5000 0.0000
vn -0.8660 -0.5000 0.0000
vn 0.8660 -0.5000 -0.0000
vn -0.9848 -0.1736 0.0000
vn 0.1736 -0.9848 -0.0000
vn 0.9848 0.1736 0.0000
vn -0.1736 0.9848 0.0000
vn 1.0000 0.0000 -0.0000
vn -1.0000 0.0000 0.0000
# 85 vertex normals

vt 3.5419 -26.4025 1.3833
vt -3.0099 -32.5962 1.3833
vt 8.9847 -32.5962 1.3833
vt 9.6818 -27.1541 1.3833
vt 2.2158 11.1809 1.3833
vt 3.3733 21.1782 1.3833
vt -3.1325 21.1782 1.3833
vt -3.1933 8.1800 1.3833
vt -16.4847 21.1782 1.3833
vt -7.4103 3.6545 1.3833
vt -16.4847 0.7259 1.3833
vt -10.0225 -1.9526 1.3833
vt -16.4847 -2.3934 1.3833
vt -10.7741 -8.0925 1.3833
vt -16.4847 -12.5395 1.3833
vt -9.5916 -14.1642 1.3833
vt -16.4847 -32.5962 1.3833
vt -6.5907 -19.5733 1.3833
vt -2.0652 -23.7903 1.3833
vt -6.7530 -32.5962 1.3833
vt 8.2875 12.3634 1.3833
vt 8.2495 21.1782 1.3833
vt 14.4274 11.6118 1.3833
vt 13.1257 21.1782 1.3833
vt 20.0345 8.9996 1.3833
vt 19.6315 21.1782 1.3833
vt 24.5600 4.7826 1.3833
vt 32.9837 21.1782 1.3833
vt 27.5609 -0.6265 1.3833
vt 32.9837 1.0093 1.3833
vt 28.7434 -6.6982 1.3833
vt 32.9837 -2.1099 1.3833
vt 27.9918 -12.8381 1.3833
vt 32.9837 -12.5395 1.3833
vt 25.3796 -18.4452 1.3833
vt 32.9837 -32.5962 1.3833
vt 15.7535 -25.9716 1.3833
vt 20.9793 -32.5962 1.3833
vt 24.7224 -32.5962 1.3833
vt 21.1626 -22.9707 1.3833
vt 9.6376 -25.9008 -0.1397
vt 3.8872 -25.1969 -0.1397
vt -2.4208 7.1921 -0.1397
vt 2.6452 10.0026 -0.1397
vt -6.3704 2.9536 -0.1397
vt -8.8168 -2.2978 -0.1397
vt -9.5208 -8.0483 -0.1397
vt -8.4133 -13.7349 -0.1397
vt -5.6028 -18.8008 -0.1397
vt -1.3643 -22.7504 -0.1397
vt 8.3317 11.1101 -0.1397
vt 14.0822 10.4062 -0.1397
vt 19.3337 7.9597 -0.1397
vt 23.5721 4.0101 -0.1397
vt 26.3826 -1.0559 -0.1397
vt 27.4901 -6.7424 -0.1397
vt 26.7862 -12.4929 -0.1397
vt 24.3397 -17.7444 -0.1397
vt 20.3901 -21.9828 -0.1397
vt 15.3242 -24.7933 -0.1397
vt 8.9847 -7.3954 -0.1397
vt 7.5143 29.7497 1.3833
vt 11.3139 29.9027 1.3833
vt 11.3139 29.9027 -0.0000
vt 7.5143 29.7497 -0.0000
vt 16.3833 30.5624 1.3833
vt 16.3833 30.5624 -0.0000
vt 20.3416 32.3680 1.3833
vt 20.3416 32.3680 -0.0000
vt 22.4597 34.8680 1.3833
vt 22.4597 34.8680 -0.0000
vt 23.1939 37.2985 1.3833
vt 23.1939 37.2985 -0.0000
vt 23.1939 52.3072 1.3833
vt 23.1939 52.3072 -0.0000
vt 22.0327 55.3628 1.3833
vt 22.0327 55.3628 -0.0000
vt 19.7773 57.2725 -0.0000
vt 19.7773 57.2725 1.3833
vt 16.8606 57.9322 1.3833
vt 16.8606 57.9322 -0.0000
vt 7.5143 57.9322 1.3833
vt 7.5143 57.9322 -0.0000
vt 3.7148 29.9027 -0.0000
vt 3.7148 29.9027 1.3833
vt -1.3546 30.5624 -0.0000
vt -1.3546 30.5624 1.3833
vt -5.3129 32.3680 -0.0000
vt -5.3129 32.3680 1.3833
vt -7.4310 34.8680 -0.0000
vt -7.4310 34.8680 1.3833
vt -8.1653 37.2985 -0.0000
vt -8.1653 37.2985 1.3833
vt -8.1653 52.3072 -0.0000
vt -8.1653 52.3072 1.3833
vt -7.0041 55.3628 -0.0000
vt -7.0041 55.3628 1.3833
vt -4.7486 57.2725 -0.0000
vt -1.8319 57.9322 -0.0000
vt -1.8319 57.9322 1.3833
vt -4.7486 57.2725 1.3833
vt 19.5089 65.6230 1.3833
vt 7.5143 65.6230 1.3833
vt 32.9837 32.5151 1.3833
vt 32.9837 35.6344 1.3833
vt 32.9837 54.8958 1.3833
vt 32.9837 65.6230 1.3833
vt 23.2521 65.6230 1.3833
vt -16.4847 32.5151 1.3833
vt -16.4847 35.6344 1.3833
vt -16.4847 54.8958 1.3833
vt -16.4847 65.6230 1.3833
vt -4.4802 65.6230 1.3833
vt -8.2234 65.6230 1.3833
vt -3.0099 -32.5962 -22.0425
vt 8.9847 -32.5962 -22.0425
vt -16.4847 21.1782 -22.0425
vt -16.4847 9.8413 -22.0425
vt -16.4847 6.7220 -22.0425
vt -16.4847 -12.5395 -22.0425
vt -16.4847 -32.5962 -22.0425
vt -6.7530 -32.5962 -22.0425
vt 32.9837 1.0093 -22.0425
vt 32.9837 21.1782 -22.0425
vt 32.9837 6.7220 -22.0425
vt 32.9837 -12.5395 -22.0425
vt 32.9837 -32.5962 -22.0425
vt 20.9793 -32.5962 -22.0425
vt 24.7224 -32.5962 -22.0425
vt 19.5089 65.6230 -22.0425
vt 7.5143 65.6230 -22.0425
vt 32.9837 32.5151 -22.0425
vt 32.9837 35.6344 -22.0425
vt 32.9837 54.8958 -22.0425
vt 32.9837 65.6230 -22.0425
vt 23.2521 65.6230 -22.0425
vt -16.4847 32.5151 -22.0425
vt -16.4847 35.6344 -22.0425
vt -16.4847 54.8958 -22.0425
vt -16.4847 65.6230 -22.0425
vt -4.4802 65.6230 -22.0425
vt -8.2234 65.6230 -22.0425
vt 8.2495 18.8458 -22.0425
vt 0.7500 0.0000 1.0000
vt 0.8333 0.0000 1.0000
vt 0.8333 1.0000 1.0000
vt 0.7500 1.0000 1.0000
vt 0.9167 0.0000 1.0000
vt 0.9167 1.0000 1.0000
vt 1.0000 0.0000 1.0000
vt 1.0000 1.0000 1.0000
vt 0.0000 0.0000 1.0000
vt 0.0833 0.0000 1.0000
vt 0.0833 1.0000 1.0000
vt 0.0000 1.0000 1.0000
vt 0.1667 0.0000 1.0000
vt 0.1667 1.0000 1.0000
vt 0.2500 0.0000 1.0000
vt 0.2500 1.0000 1.0000
vt 0.3333 0.0000 1.0000
vt 0.3333 1.0000 1.0000
vt 0.4167 0.0000 1.0000
vt 0.4167 1.0000 1.0000
vt 0.5000 0.0000 1.0000
vt 0.5000 1.0000 1.0000
vt 0.5833 0.0000 1.0000
vt 0.5833 1.0000 1.0000
vt 0.6667 0.0000 1.0000
vt 0.6667 1.0000 1.0000
vt 0.0000 0.0000 0.0000
vt 1.0000 0.0000 0.0000
vt 1.0000 1.0000 0.0000
vt 0.0000 1.0000 0.0000
vt 0.6250 0.0000 1.0000
vt 0.6250 1.0000 1.0000
vt 0.9330 0.7500 -0.2500
vt 1.0000 0.5000 -0.2500
vt 0.9330 0.2500 -0.2500
vt 0.5000 1.0000 -0.2500
vt 0.7500 0.0670 -0.2500
vt 0.5000 0.0000 -0.2500
vt 0.0670 0.2500 -0.2500
vt 0.2500 0.0670 -0.2500
vt 0.0000 0.5000 -0.2500
vt 0.0670 0.7500 -0.2500
vt 0.2500 0.9330 -0.2500
vt 0.7500 0.9330 -0.2500
vt 0.2500 0.9330 0.2500
vt 0.0670 0.7500 0.2500
vt 0.0000 0.5000 0.2500
vt 0.7500 0.9330 0.2500
vt 0.0670 0.2500 0.2500
vt 0.2500 0.0670 0.2500
vt 0.7500 0.0670 0.2500
vt 0.5000 0.0000 0.2500
vt 0.9330 0.2500 0.2500
vt 1.0000 0.5000 0.2500
vt 0.9330 0.7500 0.2500
vt 0.5000 1.0000 0.2500
# 199 texture coords

g clock
usemtl clock1
s 1
f 1/1/1 2/2/1 3/3/1 4/4/2 
f 5/5/2 6/6/2 7/7/2 8/8/3 
f 8/8/3 7/7/2 9/9/2 10/10/1 
f 10/10/1 9/9/2 11/11/2 12/12/1 
f 12/12/1 11/11/2 13/13/1 14/14/1 
f 14/14/1 13/13/1 15/15/1 16/16/1 
f 16/16/1 15/15/1 17/17/1 18/18/1 
f 19/19/1 20/20/1 2/2/1 1/1/1 
f 18/18/1 17/17/1 20/20/1 19/19/1 
f 21/21/2 22/22/2 6/6/2 5/5/2 
f 23/23/2 24/24/2 22/22/2 21/21/2 
f 25/25/2 26/26/2 24/24/2 23/23/2 
f 27/27/1 28/28/2 26/26/2 25/25/2 
f 29/29/1 30/30/1 28/28/2 27/27/1 
f 31/31/3 32/32/4 30/30/1 29/29/1 
f 33/33/1 34/34/1 32/32/4 31/31/3 
f 35/35/1 36/36/1 34/34/1 33/33/1 
f 37/37/1 38/38/1 39/39/1 40/40/1 
f 40/40/1 39/39/1 36/36/1 35/35/1 
f 4/4/2 3/3/1 38/38/1 37/37/1 
s 2
f 1/1/5 4/4/6 41/41/6 42/42/5 
f 5/5/7 8/8/8 43/43/8 44/44/7 
f 8/8/8 10/10/9 45/45/9 43/43/8 
f 10/10/9 12/12/10 46/46/10 45/45/9 
f 12/12/10 14/14/11 47/47/11 46/46/10 
f 14/14/11 16/16/12 48/48/12 47/47/11 
f 16/16/12 18/18/13 49/49/13 48/48/12 
f 19/19/14 1/1/5 42/42/5 50/50/14 
f 18/18/13 19/19/14 50/50/14 49/49/13 
f 21/21/15 5/5/7 44/44/7 51/51/15 
f 23/23/16 21/21/15 51/51/15 52/52/16 
f 25/25/17 23/23/16 52/52/16 53/53/17 
f 27/27/18 25/25/17 53/53/17 54/54/18 
f 29/29/19 27/27/18 54/54/18 55/55/19 
f 31/31/20 29/29/19 55/55/19 56/56/20 
f 33/33/21 31/31/20 56/56/20 57/57/21 
f 35/35/22 33/33/21 57/57/21 58/58/22 
f 37/37/23 40/40/24 59/59/24 60/60/23 
f 40/40/24 35/35/22 58/58/22 59/59/24 
f 4/4/6 37/37/23 60/60/23 41/41/6 
usemtl clock3
s 1
f 42/42/1 41/41/1 61/61/1 
f 44/44/1 43/43/1 61/61/1 
f 43/43/1 45/45/1 61/61/1 
f 45/45/1 46/46/1 61/61/1 
f 46/46/1 47/47/1 61/61/1 
f 47/47/1 48/48/1 61/61/1 
f 48/48/1 49/49/1 61/61/1 
f 50/50/1 42/42/1 61/61/1 
f 49/49/1 50/50/1 61/61/1 
f 51/51/1 44/44/1 61/61/1 
f 52/52/1 51/51/1 61/61/1 
f 53/53/1 52/52/1 61/61/1 
f 54/54/1 53/53/1 61/61/1 
f 55/55/1 54/54/1 61/61/1 
f 56/56/1 55/55/1 61/61/1 
f 57/57/1 56/56/1 61/61/1 
f 58/58/1 57/57/1 61/61/1 
f 60/60/1 59/59/1 61/61/1 
f 59/59/1 58/58/1 61/61/1 
f 41/41/1 60/60/1 61/61/1 
usemtl clock1
s 2
f 62/62/25 63/63/26 64/64/26 65/65/25 
f 64/64/26 63/63/26 66/66/27 67/67/27 
f 67/67/27 66/66/27 68/68/28 69/69/28 
f 69/69/28 68/68/28 70/70/29 71/71/29 
f 71/71/29 70/70/29 72/72/30 73/73/30 
f 73/73/30 72/72/30 74/74/31 75/75/31 
f 75/75/31 74/74/31 76/76/32 77/77/32 
f 78/78/33 79/79/33 80/80/34 81/81/34 
f 77/77/32 76/76/32 79/79/33 78/78/33 
f 80/80/34 82/82/35 83/83/35 81/81/34 
f 62/62/25 65/65/25 84/84/36 85/85/36 
f 84/84/36 86/86/37 87/87/37 85/85/36 
f 86/86/37 88/88/38 89/89/38 87/87/37 
f 88/88/38 90/90/39 91/91/39 89/89/38 
f 90/90/39 92/92/40 93/93/40 91/91/39 
f 92/92/40 94/94/41 95/95/41 93/93/40 
f 94/94/41 96/96/42 97/97/42 95/95/41 
f 98/98/43 99/99/44 100/100/44 101/101/43 
f 96/96/42 98/98/43 101/101/43 97/97/42 
f 100/100/44 99/99/44 83/83/35 82/82/35 
s 1
f 80/80/2 102/102/2 103/103/1 82/82/1 
f 63/63/2 24/24/2 26/26/2 66/66/2 
f 66/66/2 26/26/2 28/28/2 68/68/2 
f 68/68/2 28/28/2 104/104/2 70/70/1 
f 70/70/1 104/104/2 105/105/2 72/72/2 
f 72/72/2 105/105/2 106/106/1 74/74/2 
f 74/74/2 106/106/1 107/107/2 76/76/2 
f 79/79/2 108/108/2 102/102/2 80/80/2 
f 76/76/2 107/107/2 108/108/2 79/79/2 
f 62/62/2 22/22/2 24/24/2 63/63/2 
f 85/85/2 6/6/2 22/22/2 62/62/2 
f 87/87/2 7/7/2 6/6/2 85/85/2 
f 89/89/2 9/9/2 7/7/2 87/87/2 
f 91/91/2 109/109/2 9/9/2 89/89/2 
f 93/93/2 110/110/2 109/109/2 91/91/2 
f 95/95/2 111/111/2 110/110/2 93/93/2 
f 97/97/1 112/112/1 111/111/2 95/95/2 
f 100/100/2 113/113/2 114/114/1 101/101/1 
f 101/101/1 114/114/1 112/112/1 97/97/1 
f 82/82/1 103/103/1 113/113/2 100/100/2 
s 2
f 3/3/35 2/2/35 115/115/35 116/116/45 
s 4
f 11/11/46 9/9/47 117/117/47 118/118/46 
f 13/13/46 11/11/46 118/118/46 119/119/46 
f 15/15/46 13/13/46 119/119/46 120/120/46 
f 17/17/46 15/15/46 120/120/46 121/121/46 
s 2
f 2/2/35 20/20/35 122/122/35 115/115/35 
f 20/20/35 17/17/35 121/121/35 122/122/35 
s 4
f 28/28/48 30/30/49 123/123/48 124/124/48 
f 125/125/48 123/123/48 30/30/49 32/32/49 
f 32/32/49 34/34/49 126/126/49 125/125/48 
f 34/34/49 36/36/49 127/127/49 126/126/49 
s 2
f 39/39/50 38/38/50 128/128/50 129/129/35 
f 36/36/35 39/39/50 129/129/35 127/127/35 
f 38/38/50 3/3/35 116/116/45 128/128/50 
f 103/103/51 102/102/52 130/130/52 131/131/51 
s 4
f 104/104/48 28/28/48 124/124/48 132/132/48 
f 105/105/49 104/104/48 132/132/48 133/133/49 
f 106/106/48 105/105/49 133/133/49 134/134/48 
f 107/107/48 106/106/48 134/134/48 135/135/48 
s 2
f 102/102/52 108/108/52 136/136/52 130/130/52 
f 108/108/52 107/107/25 135/135/52 136/136/52 
s 4
f 9/9/47 109/109/47 137/137/47 117/117/47 
f 109/109/47 110/110/46 138/138/46 137/137/47 
f 110/110/46 111/111/47 139/139/47 138/138/46 
f 111/111/47 112/112/47 140/140/47 139/139/47 
s 2
f 114/114/25 113/113/51 141/141/53 142/142/25 
f 112/112/25 114/114/25 142/142/25 140/140/25 
f 113/113/51 103/103/51 131/131/51 141/141/53 
s 1
f 116/116/54 115/115/54 143/143/55 
f 118/118/54 117/117/55 143/143/55 
f 119/119/54 118/118/54 143/143/55 
f 120/120/54 119/119/54 143/143/55 
f 121/121/54 120/120/54 143/143/55 
f 115/115/54 122/122/54 143/143/55 
f 122/122/54 121/121/54 143/143/55 
f 124/124/55 123/123/46 143/143/55 
f 123/123/46 125/125/56 143/143/55 
f 125/125/56 126/126/54 143/143/55 
f 126/126/54 127/127/55 143/143/55 
f 129/129/55 128/128/54 143/143/55 
f 127/127/55 129/129/55 143/143/55 
f 128/128/54 116/116/54 143/143/55 
f 131/131/55 130/130/55 143/143/55 
f 132/132/55 124/124/55 143/143/55 
f 133/133/55 132/132/55 143/143/55 
f 134/134/55 133/133/55 143/143/55 
f 135/135/55 134/134/55 143/143/55 
f 130/130/55 136/136/55 143/143/55 
f 136/136/55 135/135/55 143/143/55 
f 117/117/55 137/137/57 143/143/55 
f 137/137/57 138/138/54 143/143/55 
f 138/138/54 139/139/57 143/143/55 
f 139/139/57 140/140/55 143/143/55 
f 142/142/55 141/141/55 143/143/55 
f 140/140/55 142/142/55 143/143/55 
f 141/141/55 131/131/55 143/143/55 
usemtl clock2
s 8
f 144/144/46 145/145/58 146/146/58 147/147/46 
f 145/145/58 148/148/59 149/149/59 146/146/58 
f 148/148/59 150/150/35 151/151/35 149/149/59 
f 150/152/35 152/153/60 153/154/60 151/155/35 
f 152/153/60 154/156/61 155/157/61 153/154/60 
f 154/156/61 156/158/49 157/159/49 155/157/61 
f 156/158/49 158/160/62 159/161/62 157/159/49 
f 158/160/62 160/162/63 161/163/63 159/161/62 
f 160/162/63 162/164/25 163/165/25 161/163/63 
f 162/164/25 164/166/64 165/167/64 163/165/25 
f 164/166/64 166/168/65 167/169/65 165/167/64 
f 166/168/65 144/144/46 147/147/46 167/169/65 
s off
f 147/147/2 146/146/2 168/165/2 
f 146/146/2 149/149/2 168/165/2 
f 149/149/2 151/151/2 168/165/2 
f 151/155/2 153/154/2 168/165/2 
f 153/154/2 155/157/2 168/165/2 
f 155/157/2 157/159/2 168/165/2 
f 157/159/2 159/161/2 168/165/2 
f 159/161/2 161/163/2 168/165/2 
f 161/163/2 163/165/2 168/165/2 
f 163/165/2 165/167/2 168/165/2 
f 165/167/2 167/169/2 168/165/2 
f 167/169/2 147/147/2 168/165/2 
usemtl clock3
s 1
f 169/170/2 170/171/2 171/172/2 172/173/2 
usemtl clock1
s 8
f 173/164/66 174/174/67 175/175/67 176/165/66 
f 174/174/67 177/144/68 178/147/68 175/175/67 
s off
f 178/147/47 177/144/47 179/144/47 180/147/47 
s 8
f 181/164/69 182/165/69 183/175/70 184/174/70 
f 184/174/70 183/175/70 185/147/71 186/144/71 
s off
f 183/175/35 182/165/35 127/165/35 187/175/35 
f 176/165/35 175/175/35 188/175/35 121/165/35 
f 175/175/35 178/147/35 180/147/35 188/175/35 
s 8
f 189/164/72 190/165/72 191/175/73 192/174/73 
f 192/174/73 191/175/73 193/147/74 194/144/74 
s off
f 193/147/35 195/147/35 196/144/35 194/144/35 
f 191/175/46 190/165/46 197/165/46 198/175/46 
f 193/147/46 191/175/46 198/175/46 195/147/46 
f 189/164/75 192/174/75 199/174/75 200/164/75 
f 192/174/48 194/144/48 196/144/48 199/174/48 
f 185/147/35 183/175/35 187/175/35 201/147/35 
f 186/144/48 185/147/48 201/147/48 202/144/48 
s 2
f 203/171/2 204/170/2 205/173/2 206/172/2 
s 4
f 207/170/55 208/173/55 209/172/55 210/171/55 
s 8
f 203/170/25 207/173/25 210/172/25 204/171/25 
s 16
f 204/170/47 210/173/47 209/172/47 205/171/47 
s 32
f 205/170/35 209/173/35 208/172/35 206/171/35 
s 64
f 206/170/48 208/173/48 207/172/48 203/171/48 
usemtl clock2
s 8
f 211/144/76 212/145/58 213/146/58 214/147/76 
f 212/145/58 215/148/59 216/149/59 213/146/58 
f 215/148/59 217/150/35 218/151/35 216/149/59 
f 217/152/35 219/153/60 220/154/60 218/155/35 
f 219/153/60 221/156/77 222/157/77 220/154/60 
f 221/156/77 223/158/49 224/159/49 222/157/77 
f 223/158/49 225/160/78 226/161/62 224/159/49 
f 225/160/78 227/162/63 228/163/63 226/161/62 
f 227/162/63 229/164/25 230/165/25 228/163/63 
f 229/164/25 231/166/64 232/167/64 230/165/25 
f 231/166/64 233/168/79 234/169/79 232/167/64 
f 233/168/79 211/144/76 214/147/76 234/169/79 
s 1
f 231/176/55 229/177/55 227/178/55 211/179/55 
f 227/178/55 225/180/55 223/181/55 219/182/55 
f 223/181/55 221/183/55 219/182/55 
f 219/182/55 217/184/55 215/185/55 211/179/55 
f 215/185/55 212/186/55 211/179/55 
f 227/178/55 219/182/55 211/179/55 
f 233/187/55 231/176/55 211/179/55 
f 213/188/2 216/189/2 218/190/2 234/191/2 
f 218/190/2 220/192/2 222/193/2 226/194/2 
f 222/193/2 224/195/2 226/194/2 
f 226/194/2 228/196/2 230/197/2 234/191/2 
f 230/197/2 232/198/2 234/191/2 
f 218/190/2 226/194/2 234/191/2 
f 214/199/2 213/188/2 234/191/2 
s 2
f 235/171/55 236/172/55 237/173/55 238/170/55 
s 4
f 239/170/2 240/171/2 241/172/2 242/173/2 
s 8
f 235/170/80 238/171/80 240/172/80 239/173/80 
s 16
f 238/170/81 237/171/81 241/172/81 240/173/81 
s 32
f 237/170/82 236/171/82 242/172/82 241/173/82 
s 64
f 236/170/83 235/171/83 239/172/83 242/173/83 
s 2
f 243/171/55 244/172/55 245/173/55 246/170/55 
s 4
f 247/170/2 248/171/2 249/172/2 250/173/2 
s 8
f 243/170/53 246/171/53 248/172/53 247/173/53 
s 16
f 246/170/84 245/171/84 249/172/84 248/173/84 
s 32
f 245/170/35 244/171/35 250/172/35 249/173/35 
s 64
f 244/170/48 243/171/85 247/172/85 250/173/48 
# 174 polygons - 68 triangles

