# 3ds Max Wavefront OBJ Exporter v0.97b - (c)2007 guruware
# File Created: 26.01.2019 23:40:16

mtllib bamboo_table_middle.mtl

#
# object bamboo_table_middle
#

v  -50.0000 43.2188 -19.5593
v  -50.0000 43.2188 48.6807
v  -50.0000 47.2900 48.6807
v  -50.0000 47.2900 -19.5593
v  50.0000 47.2900 48.6807
v  50.0000 47.2900 -19.5593
v  50.0000 43.2188 -19.5593
v  50.0000 43.2188 48.6807
# 8 vertices

vn -1.0000 -0.0000 0.0000
vn 0.0000 1.0000 -0.0000
vn 0.0000 0.0000 -1.0000
vn 0.0000 -1.0000 0.0000
vn 0.0000 0.0000 1.0000
vn 1.0000 0.0000 -0.0000
# 6 vertex normals

vt 0.1588 0.7014 0.0000
vt 0.8412 0.7014 0.0000
vt 0.8412 0.7421 0.0000
vt 0.1588 0.7421 0.0000
vt 0.0000 0.8412 0.7421
vt 0.0000 0.1588 0.7421
vt 1.0000 0.1588 0.7421
vt 1.0000 0.8412 0.7421
vt 1.0000 0.7014 0.8412
vt 1.0000 0.7421 0.8412
vt -0.0000 0.7421 0.8412
vt -0.0000 0.7014 0.8412
vt 1.0000 0.1588 0.7014
vt 1.0000 0.8412 0.7014
vt -0.0000 0.8412 0.7014
vt -0.0000 0.1588 0.7014
vt 0.0000 0.7421 0.1588
vt 0.0000 0.7014 0.1588
vt 1.0000 0.7014 0.1588
vt 1.0000 0.7421 0.1588
vt 0.1588 0.7014 1.0000
vt 0.8412 0.7014 1.0000
vt 0.8412 0.7421 1.0000
vt 0.1588 0.7421 1.0000
# 24 texture coords

g bamboo_table_middle
usemtl bamboo_table
s 4
f 1/1/1 2/2/1 3/3/1 4/4/1 
s off
f 4/5/2 3/6/2 5/7/2 6/8/2 
f 1/9/3 4/10/3 6/11/3 7/12/3 
f 2/13/4 1/14/4 7/15/4 8/16/4 
f 3/17/5 2/18/5 8/19/5 5/20/5 
f 8/21/6 7/22/6 6/23/6 5/24/6 
# 6 polygons

