# 3ds Max Wavefront OBJ Exporter v0.97b - (c)2007 guruware
# File Created: 27.01.2019 12:09:09

mtllib table1_left.mtl

#
# object gothic_chair_left
#

v  -44.6659 0.0000 -60.6227
v  -50.0000 0.0000 -60.6227
v  -50.0000 11.8308 -60.6227
v  -44.6659 11.8308 -60.6227
v  -50.0000 37.8737 -60.6227
v  -44.6659 37.8737 -60.6227
v  -50.0000 0.0000 -40.5343
v  -50.0000 11.8308 -38.4482
v  -50.0000 22.2346 -32.4416
v  -50.0000 73.7625 -60.6227
v  -44.6659 73.7625 -60.6227
v  -50.0000 29.9565 -23.2389
v  -50.0000 53.2847 -10.2545
v  -50.0000 57.5957 -12.0402
v  -50.0000 53.9139 -18.1735
v  -50.0000 34.0653 -11.9501
v  -50.0000 61.9068 -10.2545
v  -50.0000 63.6924 -5.9435
v  -50.0000 73.7625 -5.9435
v  -50.0000 73.7625 -24.3969
v  -50.0000 34.0653 -5.9435
v  -50.0000 51.4991 -5.9435
v  -44.6659 34.0653 -5.9435
v  -44.6659 34.0653 -11.9501
v  -44.6659 29.9565 -23.2389
v  -44.6659 22.2346 -32.4416
v  -44.6659 11.8308 -38.4482
v  -50.0000 59.4439 -33.9206
v  -50.0000 61.0712 -31.7155
v  -50.0000 73.7625 -42.5098
v  -50.0000 60.6626 -29.0056
v  -50.0000 58.4575 -27.3783
v  -50.0000 55.7476 -27.7868
v  -50.0000 54.1203 -29.9919
v  -50.0000 32.0109 -17.5945
v  -50.0000 56.7340 -34.3292
v  -50.0000 54.5289 -32.7019
v  -44.6659 0.0000 -40.5343
v  -44.6659 53.9139 -18.1735
v  -44.6659 57.5957 -12.0402
v  -44.6659 53.2847 -10.2545
v  -44.6659 61.9068 -10.2545
v  -44.6659 73.7625 -24.3969
v  -44.6659 73.7625 -5.9435
v  -44.6659 63.6924 -5.9435
v  -44.6659 51.4991 -5.9435
v  -44.6659 32.0109 -17.5945
v  -44.6659 59.4439 -33.9206
v  -44.6659 73.7625 -42.5098
v  -44.6659 61.0712 -31.7155
v  -44.6659 60.6626 -29.0056
v  -44.6659 58.4575 -27.3783
v  -44.6659 55.7476 -27.7868
v  -44.6659 54.1203 -29.9919
v  -44.6659 56.7340 -34.3292
v  -44.6659 54.5289 -32.7019
v  -50.0000 11.8308 48.7358
v  -50.0000 0.0000 48.7358
v  -44.6659 0.0000 48.7358
v  -44.6659 11.8308 48.7358
v  -50.0000 37.8737 48.7358
v  -44.6659 37.8737 48.7358
v  -50.0000 0.0000 28.6474
v  -50.0000 11.8308 26.5613
v  -50.0000 22.2346 20.5547
v  -44.6659 73.7625 48.7358
v  -50.0000 73.7625 48.7358
v  -50.0000 29.9565 11.3520
v  -50.0000 53.9139 6.2866
v  -50.0000 57.5957 0.1532
v  -50.0000 53.2847 -1.6324
v  -50.0000 34.0653 0.0632
v  -50.0000 61.9068 -1.6325
v  -50.0000 73.7625 12.5100
v  -44.6659 34.0653 0.0632
v  -44.6659 29.9565 11.3520
v  -44.6659 22.2346 20.5547
v  -44.6659 11.8308 26.5613
v  -50.0000 59.4439 22.0337
v  -50.0000 73.7625 30.6229
v  -50.0000 61.0712 19.8286
v  -50.0000 60.6626 17.1187
v  -50.0000 58.4575 15.4914
v  -50.0000 55.7476 15.8999
v  -50.0000 32.0109 5.7076
v  -50.0000 54.1203 18.1050
v  -50.0000 56.7340 22.4423
v  -50.0000 54.5289 20.8150
v  -44.6659 0.0000 28.6474
v  -44.6659 53.2847 -1.6324
v  -44.6659 57.5957 0.1532
v  -44.6659 53.9139 6.2866
v  -44.6659 61.9068 -1.6325
v  -44.6659 73.7625 12.5100
v  -44.6659 32.0109 5.7076
v  -44.6659 59.4439 22.0337
v  -44.6659 61.0712 19.8286
v  -44.6659 73.7625 30.6229
v  -44.6659 60.6626 17.1187
v  -44.6659 58.4575 15.4914
v  -44.6659 55.7476 15.8999
v  -44.6659 54.1203 18.1050
v  -44.6659 56.7340 22.4423
v  -44.6659 54.5289 20.8150
v  -52.2071 80.6933 49.4859
v  -52.2071 73.7625 49.4859
v  -42.4588 73.7625 49.4859
v  -42.4588 80.6933 49.4859
v  -42.4588 73.7625 -60.5801
v  -52.2070 73.7625 -60.5801
v  -52.2070 80.6933 -60.5801
v  -42.4588 80.6933 -60.5801
v  -40.8712 83.4904 -59.9157
v  -39.8118 79.4454 -59.9157
v  -54.8540 79.4454 -59.9157
v  -53.7947 83.4904 -59.9157
v  -51.0935 85.9420 52.5124
v  -47.3330 87.0452 52.5124
v  -47.3329 87.0452 -59.9157
v  -51.0935 85.9420 -59.9157
v  -54.8541 79.4454 52.5124
v  -53.7947 83.4904 52.5124
v  -43.5724 85.9420 52.5124
v  -43.5724 85.9420 -59.9157
v  -40.8712 83.4904 52.5124
v  -39.8118 79.4454 52.5124
# 126 vertices

vn 0.0000 0.0000 -1.0000
vn -1.0000 0.0000 -0.0000
vn 0.0000 -1.0000 -0.0000
vn 0.0000 -0.9848 0.1736
vn 0.0000 -0.8660 0.5000
vn 0.0000 -0.6428 0.7660
vn 0.0000 -0.3420 0.9397
vn 1.0000 0.0000 -0.0000
vn 0.0000 -0.9397 0.3420
vn 0.0000 -0.1736 0.9848
vn 0.0000 -0.9239 0.3827
vn 0.0000 -0.3827 0.9239
vn 0.0000 0.3827 0.9239
vn 0.0000 0.9239 0.3827
vn 0.0000 1.0000 -0.0000
vn 0.0000 -0.9888 -0.1491
vn 0.0000 -0.9706 0.2407
vn 0.0000 -0.2407 -0.9706
vn 0.0000 -0.5938 -0.8046
vn 0.0000 0.1491 -0.9888
vn 0.0000 0.9706 -0.2407
vn 0.0000 0.8046 -0.5938
vn 0.0000 0.8565 0.5161
vn 0.0000 0.5938 0.8046
vn 0.0000 -0.1491 0.9888
vn 0.0000 -0.8046 0.5938
vn 0.0000 0.0000 1.0000
vn 0.0000 -0.9848 -0.1736
vn 0.0000 -0.6428 -0.7660
vn 0.0000 -0.8660 -0.5000
vn 0.0000 -0.3420 -0.9397
vn 0.0000 -0.9397 -0.3420
vn 0.0000 -0.1736 -0.9848
vn 0.0000 -0.9239 -0.3827
vn 0.0000 -0.3827 -0.9239
vn 0.0000 0.3827 -0.9239
vn 0.0000 0.9239 -0.3827
vn 0.0000 -0.9706 -0.2407
vn 0.0000 -0.9888 0.1491
vn 0.0000 -0.5938 0.8046
vn 0.0000 -0.2407 0.9706
vn 0.0000 0.1491 0.9888
vn 0.0000 0.8046 0.5938
vn 0.0000 0.9706 0.2407
vn 0.0000 0.8565 -0.5161
vn 0.0000 0.5938 -0.8046
vn 0.0000 -0.1491 -0.9888
vn 0.0000 -0.8046 -0.5938
vn -0.4892 0.8722 -0.0000
vn -0.9674 0.2533 -0.0000
vn -0.8551 0.5184 -0.0000
vn 0.4892 0.8722 -0.0000
vn 0.8551 0.5184 -0.0000
vn 0.9674 0.2533 -0.0000
# 54 vertex normals

vt -0.0533 -0.5271 -0.0383
vt 0.0000 -0.5271 -0.0383
vt 0.0000 -0.4088 -0.0383
vt -0.0533 -0.4088 -0.0383
vt 0.0000 -0.1483 -0.0383
vt -0.0533 -0.1483 -0.0383
vt -0.0383 -0.4088 0.0000
vt -0.0383 -0.5271 0.0000
vt 0.1626 -0.5271 0.0000
vt 0.1834 -0.4088 0.0000
vt 0.2435 -0.3047 0.0000
vt -0.0383 -0.1483 0.0000
vt 0.0000 0.2105 -0.0383
vt -0.0533 0.2105 -0.0383
vt 0.3355 -0.2275 0.0000
vt -0.0383 0.2105 0.0000
vt 0.4654 0.0058 0.0000
vt 0.4475 0.0489 0.0000
vt 0.3862 0.0121 0.0000
vt 0.4484 -0.1864 0.0000
vt 0.4654 0.0920 0.0000
vt 0.5085 0.1098 0.0000
vt 0.5085 0.2105 0.0000
vt 0.3239 0.2105 0.0000
vt 0.5085 -0.1864 0.0000
vt 0.5085 -0.0121 0.0000
vt 1.0533 0.5085 -0.1864
vt 1.0000 0.5085 -0.1864
vt 1.0000 0.4484 -0.1864
vt 1.0533 0.4484 -0.1864
vt 1.0533 0.3355 -0.2275
vt 1.0000 0.3355 -0.2275
vt 1.0000 0.2435 -0.3047
vt 1.0533 0.2435 -0.3047
vt 1.0000 -0.3047 0.2435
vt 1.0000 -0.4088 0.1834
vt 1.0533 -0.4088 0.1834
vt 1.0533 -0.3047 0.2435
vt 0.2287 0.0674 0.0000
vt 0.2508 0.0836 0.0000
vt 0.1428 0.2105 0.0000
vt 0.2779 0.0796 0.0000
vt 0.2941 0.0575 0.0000
vt 0.2900 0.0304 0.0000
vt 0.2680 0.0141 0.0000
vt 0.3920 -0.2070 0.0000
vt 0.2246 0.0403 0.0000
vt 0.2409 0.0182 0.0000
vt 0.8374 -0.5271 -0.0533
vt 1.0383 -0.5271 -0.0533
vt 1.0383 -0.4088 -0.0533
vt 0.8166 -0.4088 -0.0533
vt 0.7565 -0.3047 -0.0533
vt 1.0383 -0.1483 -0.0533
vt 1.0383 0.2105 -0.0533
vt 0.6645 -0.2275 -0.0533
vt 0.6138 0.0121 -0.0533
vt 0.5525 0.0489 -0.0533
vt 0.5346 0.0058 -0.0533
vt 0.5516 -0.1864 -0.0533
vt 0.5346 0.0920 -0.0533
vt 0.6761 0.2105 -0.0533
vt 0.4915 0.2105 -0.0533
vt 0.4915 0.1098 -0.0533
vt 0.4915 -0.0121 -0.0533
vt 0.4915 -0.1864 -0.0533
vt 1.0000 0.3920 -0.2070
vt 1.0533 0.3920 -0.2070
vt 1.0000 -0.5271 0.1626
vt 1.0533 -0.5271 0.1626
vt 1.0000 0.1626 -0.5271
vt 1.0000 -0.0383 -0.5271
vt 1.0533 -0.0383 -0.5271
vt 1.0533 0.1626 -0.5271
vt 0.7713 0.0674 -0.0533
vt 0.8572 0.2105 -0.0533
vt 0.7492 0.0836 -0.0533
vt 0.7221 0.0796 -0.0533
vt 0.7059 0.0575 -0.0533
vt 0.7100 0.0304 -0.0533
vt 0.6080 -0.2070 -0.0533
vt 0.7320 0.0141 -0.0533
vt 0.7754 0.0403 -0.0533
vt 0.7591 0.0182 -0.0533
vt 1.0000 0.5085 0.1098
vt 1.0000 0.4654 0.0920
vt 1.0533 0.4654 0.0920
vt 1.0533 0.5085 0.1098
vt 1.0533 0.0920 0.4654
vt 1.0000 0.0920 0.4654
vt 1.0000 0.0489 0.4475
vt 1.0533 0.0489 0.4475
vt 1.0000 0.0058 0.4654
vt 1.0533 0.0058 0.4654
vt -0.0533 0.4654 0.0058
vt 0.0000 0.4654 0.0058
vt 0.0000 0.5085 -0.0121
vt -0.0533 0.5085 -0.0121
vt 1.0000 0.2779 0.0796
vt 1.0000 0.2508 0.0836
vt 1.0533 0.2508 0.0836
vt 1.0533 0.2779 0.0796
vt 0.0000 0.0575 0.2941
vt 0.0000 0.0796 0.2779
vt -0.0533 0.0796 0.2779
vt -0.0533 0.0575 0.2941
vt 0.0000 0.0304 0.2900
vt -0.0533 0.0304 0.2900
vt 0.0000 0.2680 0.0141
vt 0.0000 0.2900 0.0304
vt -0.0533 0.2900 0.0304
vt -0.0533 0.2680 0.0141
vt 0.0000 0.2409 0.0182
vt -0.0533 0.2409 0.0182
vt 1.0000 0.0403 0.2246
vt 1.0000 0.0182 0.2409
vt 1.0533 0.0182 0.2409
vt 1.0533 0.0403 0.2246
vt 1.0000 0.0674 0.2287
vt 1.0533 0.0674 0.2287
vt 1.0000 0.2287 0.0674
vt 1.0533 0.2287 0.0674
vt 1.0000 -0.4088 1.0553
vt 1.0000 -0.5271 1.0553
vt 1.0533 -0.5271 1.0553
vt 1.0533 -0.4088 1.0553
vt 1.0000 -0.1483 1.0553
vt 1.0533 -0.1483 1.0553
vt 0.8544 -0.5271 0.0000
vt 1.0553 -0.5271 0.0000
vt 1.0553 -0.4088 0.0000
vt 0.8335 -0.4088 0.0000
vt 0.7735 -0.3047 0.0000
vt 1.0553 -0.1483 0.0000
vt 1.0533 0.2105 1.0553
vt 1.0000 0.2105 1.0553
vt 1.0553 0.2105 0.0000
vt 0.6814 -0.2275 0.0000
vt 0.6308 0.0121 0.0000
vt 0.5694 0.0489 0.0000
vt 0.5516 0.0058 0.0000
vt 0.5685 -0.1864 0.0000
vt 0.5516 0.0920 0.0000
vt 0.6930 0.2105 0.0000
vt 1.0000 0.5685 -0.1864
vt 1.0533 0.5685 -0.1864
vt 1.0000 0.7735 -0.3047
vt 1.0000 0.6814 -0.2275
vt 1.0533 0.6814 -0.2275
vt 1.0533 0.7735 -0.3047
vt -0.0533 -0.4088 0.8335
vt 0.0000 -0.4088 0.8335
vt 0.0000 -0.3047 0.7735
vt -0.0533 -0.3047 0.7735
vt 0.7882 0.0674 0.0000
vt 0.8741 0.2105 0.0000
vt 0.7662 0.0836 0.0000
vt 0.7391 0.0796 0.0000
vt 0.7228 0.0575 0.0000
vt 0.7269 0.0304 0.0000
vt 0.6250 -0.2070 0.0000
vt 0.7490 0.0141 0.0000
vt 0.7923 0.0403 0.0000
vt 0.7761 0.0182 0.0000
vt -0.0553 -0.4088 -0.0533
vt -0.0553 -0.5271 -0.0533
vt 0.1456 -0.5271 -0.0533
vt 0.1665 -0.4088 -0.0533
vt 0.2265 -0.3047 -0.0533
vt -0.0553 -0.1483 -0.0533
vt 0.3186 -0.2275 -0.0533
vt -0.0553 0.2105 -0.0533
vt 0.4484 0.0058 -0.0533
vt 0.4306 0.0489 -0.0533
vt 0.3692 0.0121 -0.0533
vt 0.4315 -0.1864 -0.0533
vt 0.4484 0.0920 -0.0533
vt 0.3070 0.2105 -0.0533
vt 1.0000 0.6250 -0.2070
vt 1.0533 0.6250 -0.2070
vt -0.0533 -0.5271 0.8544
vt 0.0000 -0.5271 0.8544
vt 1.0533 1.0553 -0.5271
vt 1.0000 1.0553 -0.5271
vt 1.0000 0.8544 -0.5271
vt 1.0533 0.8544 -0.5271
vt 0.2118 0.0674 -0.0533
vt 0.2338 0.0836 -0.0533
vt 0.1259 0.2105 -0.0533
vt 0.2609 0.0796 -0.0533
vt 0.2772 0.0575 -0.0533
vt 0.2731 0.0304 -0.0533
vt 0.2510 0.0141 -0.0533
vt 0.3750 -0.2070 -0.0533
vt 0.2077 0.0403 -0.0533
vt 0.2239 0.0182 -0.0533
vt 1.0533 0.5516 0.0920
vt 1.0000 0.5516 0.0920
vt 0.0000 0.0489 0.5694
vt 0.0000 0.0920 0.5516
vt -0.0533 0.0920 0.5516
vt -0.0533 0.0489 0.5694
vt 0.0000 0.0058 0.5516
vt -0.0533 0.0058 0.5516
vt 0.0000 0.5516 0.0058
vt -0.0533 0.5516 0.0058
vt 1.0533 0.7662 0.0836
vt 1.0000 0.7662 0.0836
vt 1.0000 0.7391 0.0796
vt 1.0533 0.7391 0.0796
vt 1.0533 0.0796 0.7391
vt 1.0000 0.0796 0.7391
vt 1.0000 0.0575 0.7228
vt 1.0533 0.0575 0.7228
vt 1.0000 0.0304 0.7269
vt 1.0533 0.0304 0.7269
vt -0.0533 0.7269 0.0304
vt 0.0000 0.7269 0.0304
vt 0.0000 0.7490 0.0141
vt -0.0533 0.7490 0.0141
vt 0.0000 0.7761 0.0182
vt -0.0533 0.7761 0.0182
vt -0.0533 0.0182 0.7761
vt 0.0000 0.0182 0.7761
vt 0.0000 0.0403 0.7923
vt -0.0533 0.0403 0.7923
vt 0.0000 0.0674 0.7882
vt -0.0533 0.0674 0.7882
vt 1.0533 0.7882 0.0674
vt 1.0000 0.7882 0.0674
vt 0.9779 0.2799 1.0628
vt 0.9779 0.2105 1.0628
vt 1.0754 0.2105 1.0628
vt 1.0754 0.2799 1.0628
vt -0.0754 0.2105 -0.0379
vt 0.0221 0.2105 -0.0379
vt 0.0221 0.2799 -0.0379
vt -0.0754 0.2799 -0.0379
vt -0.0628 0.2799 -0.0754
vt -0.0628 0.2105 -0.0754
vt 1.0379 0.2105 -0.0754
vt 1.0379 0.2799 -0.0754
vt 1.0628 0.2105 0.0221
vt 1.0628 0.2799 0.0221
vt -0.0379 0.2799 0.0221
vt -0.0379 0.2105 0.0221
vt 1.0754 1.0628 0.2105
vt 0.9779 1.0628 0.2105
vt 0.9779 -0.0379 0.2105
vt 1.0754 -0.0379 0.2105
vt -0.0913 0.3078 -0.0312
vt -0.1019 0.2674 -0.0312
vt 0.0485 0.2674 -0.0312
vt 0.0379 0.3078 -0.0312
vt 0.0109 1.0930 0.3323
vt -0.0267 1.0930 0.3434
vt -0.0267 -0.0312 0.3434
vt 0.0109 -0.0312 0.3323
vt 1.0930 0.2674 0.0485
vt 1.0930 0.3078 0.0379
vt -0.0312 0.3078 0.0379
vt -0.0312 0.2674 0.0485
vt 0.0379 1.0930 0.3078
vt 0.0379 -0.0312 0.3078
vt -0.0643 1.0930 0.3323
vt -0.0643 -0.0312 0.3323
vt 1.0312 0.3078 -0.0913
vt -0.0930 0.3078 -0.0913
vt -0.0930 0.2674 -0.1019
vt 1.0312 0.2674 -0.1019
vt -0.0913 1.0930 0.3078
vt -0.0913 -0.0312 0.3078
vt 1.0913 0.3078 1.0930
vt 0.9621 0.3078 1.0930
vt 0.9515 0.2674 1.0930
vt 1.1019 0.2674 1.0930
vt -0.0643 0.3323 -0.0312
vt 0.0109 0.3323 -0.0312
vt -0.0267 0.3434 -0.0312
vt 0.9891 0.3323 1.0930
vt 1.0643 0.3323 1.0930
vt 1.0267 0.3434 1.0930
# 282 texture coords

g gothic_chair_left
usemtl gothic_chair_color2
s off
f 1/1/1 2/2/1 3/3/1 4/4/1 
usemtl gothic_chair_color1
f 4/4/1 3/3/1 5/5/1 6/6/1 
usemtl gothic_chair_color2
f 3/7/2 2/8/2 7/9/2 8/10/2 
usemtl gothic_chair_color1
f 9/11/2 5/12/2 3/7/2 8/10/2 
f 5/5/1 10/13/1 11/14/1 6/6/1 
f 5/12/2 9/11/2 12/15/2 10/16/2 
f 13/17/2 14/18/2 15/19/2 16/20/2 
f 17/21/2 18/22/2 19/23/2 20/24/2 
f 16/20/2 21/25/2 22/26/2 13/17/2 
s 2
f 23/27/3 21/28/3 16/29/4 24/30/4 
f 25/31/5 12/32/5 9/33/6 26/34/6 
f 9/35/6 8/36/7 27/37/7 26/38/6 
s off
f 28/39/2 29/40/2 30/41/2 10/16/2 
f 31/42/2 32/43/2 15/19/2 20/24/2 
f 33/44/2 34/45/2 35/46/2 16/20/2 
f 36/47/2 10/16/2 12/15/2 37/48/2 
f 33/44/2 16/20/2 15/19/2 32/43/2 
f 10/16/2 36/47/2 28/39/2 
f 29/40/2 31/42/2 20/24/2 30/41/2 
f 12/15/2 35/46/2 34/45/2 37/48/2 
usemtl gothic_chair_color2
f 38/49/8 1/50/8 4/51/8 27/52/8 
usemtl gothic_chair_color1
f 26/53/8 27/52/8 4/51/8 6/54/8 
f 6/54/8 11/55/8 25/56/8 26/53/8 
f 39/57/8 40/58/8 41/59/8 24/60/8 
f 42/61/8 43/62/8 44/63/8 45/64/8 
f 46/65/8 23/66/8 24/60/8 41/59/8 
s 2
f 35/67/9 12/32/5 25/31/5 47/68/9 
usemtl gothic_chair_color2
f 8/36/7 7/69/10 38/70/10 27/37/7 
s 1
f 7/71/3 2/72/3 1/73/3 38/74/3 
usemtl gothic_chair_color1
s off
f 48/75/8 11/55/8 49/76/8 50/77/8 
f 51/78/8 43/62/8 39/57/8 52/79/8 
f 53/80/8 24/60/8 47/81/8 54/82/8 
f 25/56/8 11/55/8 55/83/8 56/84/8 
f 53/80/8 52/79/8 39/57/8 24/60/8 
f 55/83/8 11/55/8 48/75/8 
s 2
f 16/29/4 35/67/9 47/68/9 24/30/4 
s off
f 50/77/8 49/76/8 43/62/8 51/78/8 
f 54/82/8 47/81/8 25/56/8 56/84/8 
s 1
f 18/85/3 17/86/11 42/87/11 45/88/3 
s 2
f 42/89/12 17/90/12 14/91/12 40/92/12 
s 1
f 40/92/13 14/91/13 13/93/13 41/94/13 
s 2
f 41/95/14 13/96/14 22/97/15 46/98/15 
s 1
f 31/99/16 29/100/17 50/101/17 51/102/16 
s 2
f 32/103/18 31/104/19 51/105/19 52/106/18 
f 33/107/20 32/103/18 52/106/18 53/108/20 
s 1
f 34/109/21 33/110/22 53/111/22 54/112/21 
f 37/113/23 34/109/21 54/112/21 56/114/23 
f 36/115/24 37/116/23 56/117/23 55/118/24 
s 2
f 28/119/25 36/115/25 55/118/25 48/120/25 
s 1
f 29/100/17 28/121/26 48/122/26 50/101/17 
usemtl gothic_chair_color2
s off
f 57/123/27 58/124/27 59/125/27 60/126/27 
usemtl gothic_chair_color1
f 61/127/27 57/123/27 60/126/27 62/128/27 
usemtl gothic_chair_color2
f 63/129/2 58/130/2 57/131/2 64/132/2 
usemtl gothic_chair_color1
f 65/133/2 64/132/2 57/131/2 61/134/2 
f 66/135/27 67/136/27 61/127/27 62/128/27 
f 61/134/2 67/137/2 68/138/2 65/133/2 
f 69/139/2 70/140/2 71/141/2 72/142/2 
f 73/143/2 74/144/2 19/23/2 18/22/2 
f 22/26/2 21/25/2 72/142/2 71/141/2 
s 2
f 72/145/28 21/28/3 23/27/3 75/146/28 
f 65/147/29 68/148/30 76/149/30 77/150/29 
f 78/151/31 64/152/31 65/153/29 77/154/29 
s off
f 79/155/2 67/137/2 80/156/2 81/157/2 
f 82/158/2 74/144/2 69/139/2 83/159/2 
f 84/160/2 72/142/2 85/161/2 86/162/2 
f 68/138/2 67/137/2 87/163/2 88/164/2 
f 84/160/2 83/159/2 69/139/2 72/142/2 
f 87/163/2 67/137/2 79/155/2 
f 81/157/2 80/156/2 74/144/2 82/158/2 
f 86/162/2 85/161/2 68/138/2 88/164/2 
usemtl gothic_chair_color2
f 60/165/8 59/166/8 89/167/8 78/168/8 
usemtl gothic_chair_color1
f 77/169/8 62/170/8 60/165/8 78/168/8 
f 62/170/8 77/169/8 76/171/8 66/172/8 
f 90/173/8 91/174/8 92/175/8 75/176/8 
f 93/177/8 45/64/8 44/63/8 94/178/8 
f 75/176/8 23/66/8 46/65/8 90/173/8 
s 2
f 76/149/30 68/148/30 85/179/32 95/180/32 
usemtl gothic_chair_color2
f 89/181/33 63/182/33 64/152/31 78/151/31 
s 1
f 59/183/3 58/184/3 63/185/3 89/186/3 
usemtl gothic_chair_color1
s off
f 96/187/8 97/188/8 98/189/8 66/172/8 
f 99/190/8 100/191/8 92/175/8 94/178/8 
f 101/192/8 102/193/8 95/194/8 75/176/8 
f 103/195/8 66/172/8 76/171/8 104/196/8 
f 101/192/8 75/176/8 92/175/8 100/191/8 
f 66/172/8 103/195/8 96/187/8 
s 2
f 95/180/32 85/179/32 72/145/28 75/146/28 
s off
f 97/188/8 99/190/8 94/178/8 98/189/8 
f 76/171/8 95/194/8 102/193/8 104/196/8 
s 1
f 93/197/34 73/198/34 18/85/3 45/88/3 
s 2
f 70/199/35 73/200/35 93/201/35 91/202/35 
s 1
f 71/203/36 70/199/36 91/202/36 90/204/36 
s 2
f 22/97/15 71/205/37 90/206/37 46/98/15 
s 1
f 97/207/38 81/208/38 82/209/39 99/210/39 
s 2
f 99/211/40 82/212/40 83/213/41 100/214/41 
f 100/214/41 83/213/41 84/215/42 101/216/42 
s 1
f 101/217/43 84/218/43 86/219/44 102/220/44 
f 102/220/44 86/219/44 88/221/45 104/222/45 
f 104/223/45 88/224/45 87/225/46 103/226/46 
s 2
f 103/226/47 87/225/47 79/227/47 96/228/47 
s 1
f 96/229/48 79/230/48 81/208/38 97/207/38 
s off
f 69/139/2 74/144/2 73/143/2 70/140/2 
f 93/177/8 94/178/8 92/175/8 91/174/8 
f 17/21/2 20/24/2 15/19/2 14/18/2 
f 39/57/8 43/62/8 42/61/8 40/58/8 
s 2
f 105/231/27 106/232/27 107/233/27 108/234/27 
s 4
f 109/235/1 110/236/1 111/237/1 112/238/1 
s 16
f 108/239/8 107/240/8 109/241/8 112/242/8 
s 64
f 106/243/2 105/244/2 111/245/2 110/246/2 
s 1
f 107/247/3 106/248/3 110/249/3 109/250/3 
usemtl gothic_chair_color2
f 113/251/1 114/252/1 115/253/1 116/254/1 
s 4
f 117/255/49 118/256/15 119/257/15 120/258/49 
f 121/259/50 122/260/51 116/261/51 115/262/50 
f 122/263/51 117/255/49 120/258/49 116/264/51 
f 119/257/15 118/256/15 123/265/52 124/266/52 
f 113/267/53 125/268/53 126/269/54 114/270/54 
f 124/266/52 123/265/52 125/271/53 113/272/53 
s 1
f 125/273/27 122/274/27 121/275/27 126/276/27 
f 124/277/1 120/278/1 119/279/1 
f 117/280/27 123/281/27 118/282/27 
f 120/278/1 124/277/1 113/251/1 116/254/1 
f 123/281/27 117/280/27 122/274/27 125/273/27 
# 115 polygons - 6 triangles

