# 3ds Max Wavefront OBJ Exporter v0.97b - (c)2007 guruware
# File Created: 27.01.2019 12:04:16

mtllib table1_right.mtl

#
# object table1_right
#

v  44.0508 43.8740 -49.7272
v  44.0508 41.3755 -49.7272
v  27.5512 41.3755 -47.6424
v  27.5512 43.8740 -47.6424
v  12.0465 41.3755 -41.9992
v  12.0465 43.8740 -41.9992
v  -0.5930 41.3755 -31.3934
v  -0.5930 43.8740 -31.3934
v  -8.8428 41.3755 -17.1043
v  -8.8428 43.8740 -17.1042
v  -11.7079 41.3755 -0.8552
v  -11.7079 43.8740 -0.8552
v  -8.8428 41.3755 15.3938
v  -8.8428 43.8740 15.3938
v  -0.5930 41.3755 29.6829
v  -0.5930 43.8740 29.6829
v  12.0465 41.3755 40.2887
v  12.0465 43.8740 40.2887
v  27.5511 41.3755 45.9319
v  27.5511 43.8740 45.9319
v  44.0508 41.3755 49.7272
v  44.0508 43.8740 49.7272
v  50.0000 41.3755 -49.7272
v  50.0000 43.8740 -49.7272
v  50.0000 43.8740 49.7272
v  50.0000 41.3755 49.7272
v  44.3693 42.9798 -44.6666
v  28.7486 42.9798 -42.6929
v  18.6011 42.9798 -0.5921
v  14.6159 42.9798 -37.5490
v  3.3435 42.9798 -28.0903
v  -4.0140 42.9798 -15.3467
v  -6.5693 42.9798 -0.8552
v  -4.0140 42.9798 13.6362
v  3.3435 42.9798 26.3798
v  14.6158 42.9798 35.8385
v  28.9892 42.9798 41.0700
v  44.6253 42.9798 44.6666
v  47.4877 42.9798 -44.6666
v  47.4877 42.9798 44.6666
v  28.7486 43.8740 -42.6929
v  44.3693 43.8740 -44.6666
v  14.6159 43.8740 -37.5490
v  3.3435 43.8740 -28.0903
v  -4.0140 43.8740 -15.3467
v  -6.5693 43.8740 -0.8552
v  -4.0140 43.8740 13.6362
v  3.3435 43.8740 26.3798
v  14.6158 43.8740 35.8385
v  28.9892 43.8740 41.0700
v  44.6253 43.8740 44.6666
v  47.4877 43.8740 44.6666
v  47.4877 43.8740 -44.6666
v  52.5259 41.4023 -23.5241
v  53.5899 41.4023 -20.9554
v  20.2953 0.1954 -37.8898
v  19.9303 0.1954 -38.7711
v  49.9572 41.4023 -24.5880
v  19.0491 0.1954 -39.1361
v  47.3885 41.4023 -23.5241
v  18.1678 0.1954 -38.7711
v  17.8028 0.1954 -37.8898
v  46.3246 41.4023 -20.9554
v  18.1678 0.1954 -37.0086
v  47.3885 41.4023 -18.3867
v  19.0491 0.1954 -36.6436
v  49.9572 41.4023 -17.3227
v  19.9303 0.1954 -37.0086
v  52.5259 41.4023 -18.3867
v  52.5259 41.4023 22.3399
v  19.9303 0.1954 37.5869
v  20.2953 0.1954 36.7057
v  53.5899 41.4023 19.7712
v  49.9572 41.4023 23.4039
v  19.0491 0.1954 37.9519
v  47.3885 41.4023 22.3399
v  18.1678 0.1954 37.5869
v  17.8028 0.1954 36.7057
v  46.3246 41.4023 19.7712
v  18.1678 0.1954 35.8244
v  47.3885 41.4023 17.2025
v  19.0491 0.1954 35.4594
v  49.9572 41.4023 16.1385
v  19.9303 0.1954 35.8244
v  52.5259 41.4023 17.2025
# 85 vertices

vn -0.1254 0.0000 -0.9921
vn -0.2352 0.0000 -0.9720
vn -0.5000 0.0000 -0.8660
vn -0.7660 0.0000 -0.6428
vn -0.9397 0.0000 -0.3420
vn -1.0000 0.0000 -0.0000
vn -0.9397 0.0000 0.3420
vn -0.7660 0.0000 0.6428
vn -0.5000 0.0000 0.8660
vn -0.2836 0.0000 0.9589
vn -0.2242 0.0000 0.9746
vn 0.0000 0.0000 -1.0000
vn 0.0000 0.0000 1.0000
vn 1.0000 0.0000 -0.0000
vn 0.0000 1.0000 -0.0000
vn 0.1254 0.0000 0.9921
vn 0.3420 0.0000 0.9397
vn 0.6428 0.0000 0.7660
vn 0.8660 0.0000 0.5000
vn 0.9848 0.0000 0.1736
vn 0.9848 0.0000 -0.1736
vn 0.8660 0.0000 -0.5000
vn 0.6428 0.0000 -0.7660
vn 0.3420 0.0000 -0.9397
vn 0.2242 0.0000 -0.9746
vn 0.7414 -0.3824 -0.5515
vn 0.7674 -0.6395 0.0474
vn 0.7907 -0.6074 -0.0766
vn 0.5666 -0.1483 -0.8105
vn 0.1608 0.2191 -0.9624
vn -0.1210 0.4099 -0.9041
vn -0.5322 0.5988 -0.5985
vn -0.5806 0.6109 -0.5383
vn -0.8106 0.5831 -0.0536
vn -0.8350 0.5439 0.0829
vn -0.7716 0.2918 0.5652
vn -0.5754 0.0388 0.8170
vn -0.1571 -0.3202 0.9342
vn 0.1094 -0.4880 0.8659
vn 0.5038 -0.6537 0.5646
vn 0.5473 -0.6635 0.5101
vn 0.7414 -0.3824 0.5515
vn 0.5666 -0.1483 0.8105
vn 0.7907 -0.6074 0.0766
vn 0.7674 -0.6395 -0.0474
vn 0.1608 0.2191 0.9624
vn -0.1210 0.4099 0.9041
vn -0.5322 0.5988 0.5985
vn -0.5806 0.6109 0.5383
vn -0.8106 0.5831 0.0536
vn -0.8350 0.5439 -0.0829
vn -0.7716 0.2918 -0.5652
vn -0.5754 0.0388 -0.8170
vn -0.1571 -0.3202 -0.9342
vn 0.1094 -0.4880 -0.8659
vn 0.5038 -0.6537 -0.5646
vn 0.5473 -0.6635 -0.5101
# 57 vertex normals

vt 0.2689 0.7184 0.9973
vt 0.2689 0.6934 0.9973
vt 0.4339 0.6934 0.9764
vt 0.4339 0.7184 0.9764
vt 0.5889 0.6934 0.9200
vt 0.5889 0.7184 0.9200
vt 0.7153 0.6934 0.8139
vt 0.7153 0.7184 0.8139
vt 0.1861 0.7184 0.2847
vt 0.1861 0.6934 0.2847
vt 0.3290 0.6934 0.2022
vt 0.3290 0.7184 0.2022
vt 0.4914 0.6934 0.1735
vt 0.4914 0.7184 0.1735
vt 0.6539 0.6934 0.2022
vt 0.6539 0.7184 0.2022
vt 0.7968 0.6934 0.2847
vt 0.7968 0.7184 0.2847
vt 0.2847 0.7184 0.2032
vt 0.2847 0.6934 0.2032
vt 0.4111 0.6934 0.0971
vt 0.4111 0.7184 0.0971
vt 0.5661 0.6934 0.0407
vt 0.5661 0.7184 0.0407
vt 0.7311 0.6934 0.0027
vt 0.7311 0.7184 0.0027
vt 0.2094 0.6934 0.9973
vt 0.2094 0.7184 0.9973
vt 0.7906 0.7184 0.0027
vt 0.7906 0.6934 0.0027
vt 0.0027 0.7184 0.7906
vt 0.0027 0.6934 0.7906
vt 0.9973 0.6934 0.7906
vt 0.9973 0.7184 0.7906
vt 0.7343 0.9467 0.7095
vt 0.5781 0.9269 0.7095
vt 0.4766 0.5059 0.7095
vt 0.4367 0.8755 0.7095
vt 0.3240 0.7809 0.7095
vt 0.2505 0.6535 0.7095
vt 0.2249 0.5086 0.7095
vt 0.2504 0.3636 0.7095
vt 0.3240 0.2362 0.7095
vt 0.4367 0.1416 0.7095
vt 0.5805 0.0893 0.7095
vt 0.7368 0.0533 0.7095
vt 0.7655 0.9467 0.7095
vt 0.7655 0.0533 0.7095
vt 0.5781 0.9269 0.7184
vt 0.7343 0.9467 0.7184
vt 0.7311 0.9973 0.7184
vt 0.5661 0.9764 0.7184
vt 0.4367 0.8755 0.7184
vt 0.4111 0.9200 0.7184
vt 0.2847 0.8139 0.7184
vt 0.3240 0.7809 0.7184
vt 0.2022 0.6710 0.7184
vt 0.2505 0.6535 0.7184
vt 0.1735 0.5086 0.7184
vt 0.2249 0.5086 0.7184
vt 0.2022 0.3461 0.7184
vt 0.2504 0.3636 0.7184
vt 0.2847 0.2032 0.7184
vt 0.3240 0.2362 0.7184
vt 0.4111 0.0971 0.7184
vt 0.4367 0.1416 0.7184
vt 0.5661 0.0407 0.7184
vt 0.5805 0.0893 0.7184
vt 0.7368 0.0533 0.7184
vt 0.7311 0.0027 0.7184
vt 0.7655 0.0533 0.7184
vt 0.7906 0.0027 0.7184
vt 0.7906 0.9973 0.7184
vt 0.7655 0.9467 0.7184
vt 0.7343 0.7095 0.9467
vt 0.7343 0.7184 0.9467
vt 0.5781 0.7184 0.9269
vt 0.5781 0.7095 0.9269
vt 0.4367 0.7184 0.8755
vt 0.4367 0.7095 0.8755
vt 0.3240 0.7184 0.7809
vt 0.3240 0.7095 0.7809
vt 0.7809 0.7095 0.3240
vt 0.7809 0.7184 0.3240
vt 0.6535 0.7184 0.2505
vt 0.6535 0.7095 0.2505
vt 0.5086 0.7184 0.2249
vt 0.5086 0.7095 0.2249
vt 0.3636 0.7184 0.2504
vt 0.3636 0.7095 0.2504
vt 0.2362 0.7184 0.3240
vt 0.2362 0.7095 0.3240
vt 0.6760 0.7095 0.2362
vt 0.6760 0.7184 0.2362
vt 0.5633 0.7184 0.1416
vt 0.5633 0.7095 0.1416
vt 0.4195 0.7184 0.0893
vt 0.4195 0.7095 0.0893
vt 0.2632 0.7184 0.0533
vt 0.2632 0.7095 0.0533
vt 0.2345 0.7184 0.0533
vt 0.2345 0.7095 0.0533
vt 0.9467 0.7095 0.7655
vt 0.9467 0.7184 0.7655
vt 0.0533 0.7184 0.7655
vt 0.0533 0.7095 0.7655
vt 0.7655 0.7095 0.9467
vt 0.7655 0.7184 0.9467
vt 0.7352 0.6937 0.8158
vt 0.7096 0.6937 0.8265
vt 0.8789 0.2816 0.4935
vt 0.8877 0.2816 0.4899
vt 0.2098 0.6937 0.7459
vt 0.1842 0.6937 0.7352
vt 0.5101 0.2816 0.8877
vt 0.5189 0.2816 0.8914
vt 0.2355 0.6937 0.7352
vt 0.5277 0.2816 0.8877
vt 0.2648 0.6937 0.7645
vt 0.1123 0.2816 0.4723
vt 0.1211 0.2816 0.4686
vt 0.2904 0.6937 0.7538
vt 0.1299 0.2816 0.4723
vt 0.3161 0.6937 0.7645
vt 0.7645 0.6937 0.6839
vt 0.4723 0.2816 0.8701
vt 0.4811 0.2816 0.8664
vt 0.7902 0.6937 0.6732
vt 0.4899 0.2816 0.8701
vt 0.8158 0.6937 0.6839
vt 0.6839 0.6937 0.8158
vt 0.8701 0.2816 0.4899
vt 0.8158 0.7352 0.6937
vt 0.7902 0.7459 0.6937
vt 0.7902 0.6732 0.6937
vt 0.8158 0.6839 0.6937
vt 0.8265 0.7096 0.6937
vt 0.7645 0.7352 0.6937
vt 0.7538 0.7096 0.6937
vt 0.7645 0.6839 0.6937
vt 0.2766 0.6937 0.8158
vt 0.1241 0.2816 0.4899
vt 0.1329 0.2816 0.4935
vt 0.3023 0.6937 0.8265
vt 0.7902 0.6937 0.2660
vt 0.4811 0.2816 0.1205
vt 0.4899 0.2816 0.1241
vt 0.8158 0.6937 0.2766
vt 0.7645 0.6937 0.2766
vt 0.4723 0.2816 0.1241
vt 0.8671 0.2816 0.4686
vt 0.8759 0.2816 0.4723
vt 0.7234 0.6937 0.7645
vt 0.6977 0.6937 0.7538
vt 0.8582 0.2816 0.4723
vt 0.6720 0.6937 0.7645
vt 0.5189 0.2816 0.1454
vt 0.5277 0.2816 0.1418
vt 0.2355 0.6937 0.3280
vt 0.2098 0.6937 0.3386
vt 0.5101 0.2816 0.1418
vt 0.1842 0.6937 0.3280
vt 0.1418 0.2816 0.4899
vt 0.3280 0.6937 0.8158
vt 0.8158 0.2766 0.6937
vt 0.8158 0.3280 0.6937
vt 0.7902 0.3386 0.6937
vt 0.7902 0.2660 0.6937
vt 0.8265 0.3023 0.6937
vt 0.7645 0.2766 0.6937
vt 0.7645 0.3280 0.6937
vt 0.7538 0.3023 0.6937
# 172 texture coords

g table1_right
usemtl Table1_frame
s 8
f 1/1/1 2/2/1 3/3/2 4/4/2 
f 4/4/2 3/3/2 5/5/3 6/6/3 
f 6/6/3 5/5/3 7/7/4 8/8/4 
f 8/9/4 7/10/4 9/11/5 10/12/5 
f 10/12/5 9/11/5 11/13/6 12/14/6 
f 12/14/6 11/13/6 13/15/7 14/16/7 
f 14/16/7 13/15/7 15/17/8 16/18/8 
f 16/19/8 15/20/8 17/21/9 18/22/9 
f 18/22/9 17/21/9 19/23/10 20/24/10 
f 20/24/10 19/23/10 21/25/11 22/26/11 
s off
f 23/27/12 2/2/12 1/1/12 24/28/12 
f 25/29/13 22/26/13 21/25/13 26/30/13 
s 1
f 25/31/14 26/32/14 23/33/14 24/34/14 
usemtl Table1_glass
s off
f 27/35/15 28/36/15 29/37/15 
f 28/36/15 30/38/15 29/37/15 
f 30/38/15 31/39/15 29/37/15 
f 31/39/15 32/40/15 29/37/15 
f 32/40/15 33/41/15 29/37/15 
f 33/41/15 34/42/15 29/37/15 
f 34/42/15 35/43/15 29/37/15 
f 35/43/15 36/44/15 29/37/15 
f 36/44/15 37/45/15 29/37/15 
f 37/45/15 38/46/15 29/37/15 
f 39/47/15 27/35/15 29/37/15 
f 38/46/15 40/48/15 29/37/15 
f 40/48/15 39/47/15 29/37/15 
usemtl Table1_frame
f 41/49/15 42/50/15 1/51/15 4/52/15 
f 43/53/15 41/49/15 4/52/15 6/54/15 
f 43/53/15 6/54/15 8/55/15 44/56/15 
f 44/56/15 8/55/15 10/57/15 45/58/15 
f 45/58/15 10/57/15 12/59/15 46/60/15 
f 46/60/15 12/59/15 14/61/15 47/62/15 
f 47/62/15 14/61/15 16/63/15 48/64/15 
f 48/64/15 16/63/15 18/65/15 49/66/15 
f 49/66/15 18/65/15 20/67/15 50/68/15 
f 51/69/15 50/68/15 20/67/15 22/70/15 
f 52/71/15 51/69/15 22/70/15 25/72/15 
f 52/71/15 25/72/15 24/73/15 53/74/15 
f 53/74/15 24/73/15 1/51/15 42/50/15 
f 27/75/16 42/76/16 41/77/16 28/78/16 
f 28/78/17 41/77/17 43/79/17 30/80/17 
f 30/80/18 43/79/18 44/81/18 31/82/18 
f 31/83/19 44/84/19 45/85/19 32/86/19 
f 32/86/20 45/85/20 46/87/20 33/88/20 
f 33/88/21 46/87/21 47/89/21 34/90/21 
f 34/90/22 47/89/22 48/91/22 35/92/22 
f 35/93/23 48/94/23 49/95/23 36/96/23 
f 36/96/24 49/95/24 50/97/24 37/98/24 
f 37/98/25 50/97/25 51/99/25 38/100/25 
f 38/100/12 51/99/12 52/101/12 40/102/12 
f 40/103/6 52/104/6 53/105/6 39/106/6 
f 39/107/13 53/108/13 42/76/13 27/75/13 
s 8
f 54/109/26 55/110/27 56/111/28 57/112/29 
f 58/113/30 54/114/26 57/115/29 59/116/31 
f 60/117/32 58/113/30 59/116/31 61/118/33 
f 60/119/32 61/120/33 62/121/34 63/122/35 
f 63/122/35 62/121/34 64/123/36 65/124/37 
f 65/125/37 64/126/36 66/127/38 67/128/39 
f 67/128/39 66/127/38 68/129/40 69/130/41 
f 69/131/41 68/132/40 56/111/28 55/110/27 
s 1
f 54/133/15 58/134/15 67/135/15 69/136/15 
f 55/137/15 54/133/15 69/136/15 
f 60/138/15 63/139/15 65/140/15 67/135/15 
f 58/134/15 60/138/15 67/135/15 
s 8
f 70/141/42 71/142/43 72/143/44 73/144/45 
f 74/145/46 75/146/47 71/147/43 70/148/42 
f 76/149/48 77/150/49 75/146/47 74/145/46 
f 78/151/50 77/152/49 76/153/48 79/154/51 
f 80/155/52 78/151/50 79/154/51 81/156/53 
f 82/157/54 80/158/52 81/159/53 83/160/55 
f 84/161/56 82/157/54 83/160/55 85/162/57 
f 72/143/44 84/163/56 85/164/57 73/144/45 
s 1
f 70/165/15 85/166/15 83/167/15 74/168/15 
f 73/169/15 85/166/15 70/165/15 
f 76/170/15 83/167/15 81/171/15 79/172/15 
f 74/168/15 83/167/15 76/170/15 
# 59 polygons - 17 triangles

